<?xml version="1.0" standalone="no"?>
<!DOCTYPE svg PUBLIC "-//W3C//DTD SVG 1.1//EN" "http://www.w3.org/Graphics/SVG/1.1/DTD/svg11.dtd" >
<svg xmlns="http://www.w3.org/2000/svg">
<metadata>Generated by IcoMoon</metadata>
<defs>
<font id="icomoon" horiz-adv-x="1024">
<font-face units-per-em="1024" ascent="960" descent="-64" />
<missing-glyph horiz-adv-x="1024" />
<glyph unicode="&#x20;" horiz-adv-x="512" d="" />
<glyph unicode="&#xe900;" glyph-name="facebook-brands" d="M1008 448c0 274-222 496-496 496s-496-222-496-496c0-247.56 181.38-452.76 418.5-490v346.62h-126v143.38h126v109.28c0 124.3 74 192.96 187.34 192.96 54.28 0 111.040-9.68 111.040-9.68v-122h-62.56c-61.6 0-80.82-38.24-80.82-77.46v-93.1h137.56l-22-143.38h-115.56v-346.62c237.12 37.24 418.5 242.44 418.5 490z" />
<glyph unicode="&#xe901;" glyph-name="instagram1" d="M1022.998 658.941c-2.399 54.409-11.198 91.815-23.802 124.227-13.003 34.405-33.006 65.208-59.215 90.815-25.607 26.005-56.613 46.212-90.619 59.012-32.6 12.604-69.811 21.403-124.22 23.802-54.815 2.602-72.217 3.204-211.244 3.204s-156.429-0.602-211.041-3.001c-54.409-2.399-91.815-11.205-124.22-23.802-34.413-13.003-65.216-33.006-90.822-59.215-26.005-25.607-46.204-56.613-59.012-90.619-12.604-32.608-21.403-69.811-23.802-124.22-2.602-54.815-3.204-72.217-3.204-211.244s0.602-156.429 3.001-211.041c2.399-54.409 11.205-91.815 23.809-124.227 13.003-34.405 33.202-65.208 59.207-90.815 25.607-26.005 56.613-46.212 90.619-59.012 32.608-12.604 69.811-21.403 124.227-23.802 54.604-2.407 72.014-3.001 211.041-3.001s156.429 0.594 211.041 3.001c54.409 2.399 91.815 11.198 124.22 23.802 68.818 26.607 123.227 81.016 149.834 149.826 12.596 32.608 21.403 69.818 23.802 124.227 2.399 54.612 3.001 72.014 3.001 211.041s-0.203 156.429-2.602 211.041zM930.785 240.86c-2.204-50.010-10.604-77.015-17.605-95.019-17.206-44.61-52.612-80.016-97.222-97.222-18.004-7.001-45.204-15.401-95.019-17.597-54.011-2.407-70.209-3.001-206.837-3.001s-153.030 0.594-206.845 3.001c-50.010 2.196-77.015 10.596-95.019 17.597-22.2 8.205-42.407 21.207-58.808 38.211-17.003 16.605-30.006 36.609-38.211 58.808-7.001 18.004-15.401 45.212-17.597 95.019-2.407 54.011-3.001 70.217-3.001 206.845s0.594 153.030 3.001 206.837c2.196 50.010 10.596 77.015 17.597 95.019 8.205 22.207 21.207 42.407 38.414 58.816 16.597 17.003 36.601 30.006 58.808 38.203 18.004 7.001 45.212 15.401 95.019 17.605 54.011 2.399 70.217 3.001 206.837 3.001 136.831 0 153.030-0.602 206.845-3.001 50.010-2.204 77.015-10.604 95.019-17.605 22.2-8.197 42.407-21.199 58.808-38.203 17.003-16.605 30.006-36.609 38.211-58.816 7.001-18.004 15.401-45.204 17.605-95.019 2.399-54.011 3.001-70.209 3.001-206.837s-0.602-152.631-3.001-206.642zM513.899 710.951c-145.224 0-263.051-117.82-263.051-263.051s117.828-263.051 263.051-263.051c145.231 0 263.051 117.82 263.051 263.051s-117.82 263.051-263.051 263.051zM513.899 277.265c-94.214 0-170.635 76.413-170.635 170.635s76.421 170.635 170.635 170.635c94.222 0 170.635-76.413 170.635-170.635s-76.413-170.635-170.635-170.635zM848.769 721.352c0-33.913-27.498-61.41-61.418-61.41-33.913 0-61.41 27.498-61.41 61.41 0 33.921 27.498 61.41 61.41 61.41 33.921 0 61.418-27.49 61.418-61.41z" />
<glyph unicode="&#xe902;" glyph-name="times-solid" horiz-adv-x="704" d="M485.44 448l200.14 200.14c24.56 24.56 24.56 64.38 0 88.96l-44.48 44.48c-24.56 24.56-64.38 24.56-88.96 0l-200.14-200.14-200.14 200.14c-24.56 24.56-64.38 24.56-88.96 0l-44.48-44.48c-24.56-24.56-24.56-64.38 0-88.96l200.14-200.14-200.14-200.14c-24.56-24.56-24.56-64.38 0-88.96l44.48-44.48c24.56-24.56 64.4-24.56 88.96 0l200.14 200.14 200.14-200.14c24.56-24.56 64.4-24.56 88.96 0l44.48 44.48c24.56 24.56 24.56 64.38 0 88.96l-200.14 200.14z" />
<glyph unicode="&#xe903;" glyph-name="vk-brands" horiz-adv-x="1152" d="M1090 724.6c7.4 25 0 43.4-35.6 43.4h-117.8c-30 0-43.8-15.8-51.2-33.4 0 0-60-146.2-144.8-241-27.4-27.4-40-36.2-55-36.2-7.4 0-18.8 8.8-18.8 33.8v233.4c0 30-8.4 43.4-33.2 43.4h-185.2c-18.8 0-30-14-30-27 0-28.4 42.4-35 46.8-115v-173.6c0-38-6.8-45-21.8-45-40 0-137.2 146.8-194.8 314.8-11.6 32.6-23 45.8-53.2 45.8h-117.8c-33.6 0-40.4-15.8-40.4-33.4 0-31.2 40-186.2 186.2-391 97.4-139.8 234.6-215.6 359.4-215.6 75 0 84.2 16.8 84.2 45.8 0 133.6-6.8 146.2 30.8 146.2 17.4 0 47.4-8.8 117.4-76.2 80-80 93.2-115.8 138-115.8h117.8c33.6 0 50.6 16.8 40.8 50-22.4 69.8-173.8 213.4-180.6 223-17.4 22.4-12.4 32.4 0 52.4 0.2 0.2 144 202.6 158.8 271.2z" />
<glyph unicode="&#xe904;" glyph-name="youtube-brands" horiz-adv-x="1152" d="M1099.31 711.834c-12.562 47.3-49.574 84.552-96.568 97.194-85.18 22.972-426.742 22.972-426.742 22.972s-341.56 0-426.742-22.972c-46.994-12.644-84.006-49.894-96.568-97.194-22.824-85.734-22.824-264.61-22.824-264.61s0-178.876 22.824-264.61c12.562-47.3 49.574-83 96.568-95.642 85.182-22.972 426.742-22.972 426.742-22.972s341.56 0 426.742 22.972c46.994 12.642 84.006 48.342 96.568 95.642 22.824 85.734 22.824 264.61 22.824 264.61s0 178.876-22.824 264.61zM464.29 284.818v324.812l285.478-162.41-285.478-162.402z" />
<glyph unicode="&#xe905;" glyph-name="home1" d="M1024 369.556l-512 397.426-512-397.428v162.038l512 397.426 512-397.428zM896 384v-384h-256v256h-256v-256h-256v384l384 288z" />
<glyph unicode="&#xe906;" glyph-name="pencil" d="M864 960c88.364 0 160-71.634 160-160 0-36.020-11.91-69.258-32-96l-64-64-224 224 64 64c26.742 20.090 59.978 32 96 32zM64 224l-64-288 288 64 592 592-224 224-592-592zM715.578 596.422l-448-448-55.156 55.156 448 448 55.156-55.156z" />
<glyph unicode="&#xe907;" glyph-name="working_time" horiz-adv-x="1028" d="M441.6 959.58c-0.21-0.21-5.77-1.154-12.38-2.098-6.505-1.049-19.725-3.462-29.377-5.456-9.548-2.098-18.78-3.987-20.564-4.302-1.679-0.315-3.567-0.944-4.197-1.364-0.525-0.42-3.148-1.049-5.666-1.469-2.623-0.42-6.19-1.364-7.869-2.203-1.784-0.734-6.295-2.203-10.072-3.148s-7.239-2.098-7.764-2.623c-0.63-0.63-1.993-1.049-3.252-1.049-1.154 0-3.987-0.944-6.295-2.098s-4.616-2.098-5.246-2.098c-1.154 0-16.787-6.19-24.656-9.652-17.731-7.974-24.026-11.436-27.279-15.003-1.993-2.203-3.043-3.567-2.203-3.148 0.944 0.525 1.259 0.42 0.734-0.315-0.839-1.469-17.836-10.702-19.725-10.702-1.049 0-0.944 0.315 0.21 1.049 1.364 0.839 1.364 1.049-0.105 1.049-0.944 0-2.518-1.049-3.672-2.308-1.259-1.364-1.364-1.889-0.42-1.364 1.364 0.734 1.364 0.63 0.21-0.734-0.734-0.839-5.875-4.407-11.541-7.764-5.561-3.462-15.738-10.072-22.452-14.793-6.82-4.826-13.010-8.708-13.639-8.708-0.944 0-0.839 0.315 0.21 1.049 1.364 0.944 1.364 1.049 0 1.049-1.784 0-9.862-7.659-8.918-8.498 0.315-0.315-5.77-5.77-13.325-12.066-7.659-6.295-23.187-20.564-34.623-31.79-11.436-11.121-20.774-19.934-20.774-19.41s-5.456-4.511-12.17-11.121c-11.541-11.436-25.6-28.013-25.6-30.111 0-0.63-1.049-1.889-2.203-3.043-3.252-2.833-22.557-32.315-30.951-47.108-7.764-13.849-22.872-44.59-26.649-54.557-1.364-3.462-3.462-8.603-4.721-11.541-1.259-2.833-3.462-8.498-4.721-12.59-1.364-3.987-3.043-8.708-3.777-10.492-0.734-1.679-1.574-4.511-1.993-6.295-0.42-1.679-1.364-4.616-2.203-6.4-0.734-1.679-1.679-5.246-2.098-7.764s-1.364-5.77-2.203-7.239c-0.734-1.469-1.364-3.882-1.364-5.351 0-2.728-1.574-9.548-3.043-13.115-2.938-7.134-3.252-17.626-3.252-122.859 0-104.708 0.105-108.275 2.098-116.879 4.826-20.144 18.885-62.111 26.23-78.164 1.574-3.462 3.882-8.918 5.246-12.066 4.511-11.121 20.984-42.807 30.007-57.81 9.548-15.948 20.669-32.525 31.161-46.584 6.61-8.813 35.252-38.505 36.407-37.77 0.315 0.21 6.085-5.036 12.695-11.646 6.505-6.505 11.436-11.961 10.911-11.961s5.351-6.4 13.115-14.269c25.705-25.81 64.42-52.669 107.016-74.282 17.207-8.708 48.052-22.662 50.046-22.662 0.63 0 2.518-0.734 4.092-1.574 1.679-0.839 3.777-1.574 4.616-1.574 0.944 0 2.098-0.42 2.623-0.944 1.469-1.259 23.082-8.184 33.049-10.492 1.993-0.525 7.344-1.889 11.751-3.148 8.079-2.203 8.918-2.203 132.931-2.203 69.456 0 125.062 0.42 125.377 0.944 0.315 0.42 2.833 1.154 5.561 1.574 2.833 0.315 6.4 1.364 8.079 2.203 1.574 0.839 3.672 1.574 4.616 1.574 2.308 0 32.839 10.387 35.567 12.17 1.259 0.839 2.938 1.469 3.567 1.469 0.734 0 3.252 0.839 5.561 1.889 2.413 1.049 7.134 3.043 10.597 4.407s13.849 6.085 23.082 10.492c12.066 5.875 17.836 9.233 20.459 12.066 1.993 2.203 2.938 3.567 2.098 3.148-1.259-0.734-1.364-0.63-0.21 0.734 0.63 0.839 5.036 3.777 9.548 6.505 7.869 4.616 11.436 5.98 10.072 3.777-1.049-1.784 1.259-1.154 2.728 0.734 1.259 1.574 1.259 1.679-0.105 0.839-0.839-0.42-0.42 0.42 0.944 1.993 1.469 1.469 5.98 4.826 10.177 7.449 7.239 4.511 10.702 5.875 9.338 3.672-0.315-0.63 0.42-1.049 1.784-1.049 1.679 0 4.511 2.203 8.708 6.505 3.462 3.567 5.141 5.666 3.672 4.511-2.203-1.679-2.098-1.469 0.525 1.469 1.784 1.889 6.925 6.4 11.541 9.862 14.059 10.807 29.692 24.551 45.22 39.764 8.079 7.974 15.003 14.269 15.213 13.954 0.315-0.21 8.393 7.764 18.046 17.836 20.774 21.718 36.092 41.757 52.879 69.246 13.22 21.718 28.538 52.984 37.561 76.59 2.098 5.77 4.302 11.436 4.826 12.59 2.308 5.141 8.289 24.236 8.289 26.334 0 1.364 0.42 2.623 0.839 2.938 0.525 0.315 1.469 3.252 2.203 6.61 2.413 10.911 3.567 15.528 4.302 16.577 0.42 0.63 1.049 3.987 1.469 7.554s1.364 7.764 2.203 9.443c0.839 1.574 1.993 7.449 2.623 12.905s1.574 10.807 2.098 11.751c2.413 4.407 3.252 33.574 2.833 91.069-0.525 55.921-1.049 66.833-3.777 79.003-0.63 2.728-1.574 9.128-2.203 14.059-0.63 5.036-1.574 9.652-2.098 10.282s-1.259 3.672-1.679 6.82c-0.42 3.148-1.049 6.295-1.469 6.82-1.049 1.364-3.148 10.282-3.148 13.115 0 1.259-0.734 3.777-1.574 5.561-0.839 1.889-1.993 5.351-2.623 7.869-0.525 2.413-1.574 6.4-2.203 8.813-0.944 4.197-3.148 9.652-5.246 13.639-0.525 1.049-0.944 2.728-0.944 3.777s-0.944 3.567-1.993 5.77c-1.049 2.098-2.308 5.141-2.728 6.715-0.315 1.679-1.993 5.77-3.567 9.233-1.679 3.462-3.987 8.918-5.351 12.066-10.597 25.6-33.993 66.098-55.502 96-8.498 11.856-33.154 38.715-34.728 37.77-0.315-0.21-9.548 8.498-20.564 19.515-10.911 10.911-19.305 19.83-18.78 19.83 1.784 0-21.613 22.977-30.426 29.797-15.528 12.17-45.534 32.21-57.39 38.505-1.469 0.839-7.659 4.197-13.639 7.449-22.977 12.695-70.295 33.364-76.17 33.364-1.154 0-2.413 0.42-2.728 0.944-0.315 0.42-2.833 1.469-5.561 2.203-2.833 0.734-6.505 1.889-8.393 2.728-1.784 0.839-4.826 1.469-6.82 1.469s-3.987 0.42-4.616 0.944c-0.525 0.42-7.030 2.413-14.584 4.197-7.449 1.784-14.584 3.777-15.738 4.302-1.154 0.42-4.931 1.154-8.289 1.574-3.462 0.315-6.82 1.049-7.449 1.574-3.148 2.623-24.656 3.462-92.957 3.882-38.925 0.21-71.030 0.21-71.344-0.105zM450.623 889.6c-2.623-0.42 0-0.63 6.82-0.315 6.085 0.21 27.803 0.734 48.262 0.944 30.321 0.525 39.449 0.315 49.311-1.049 6.61-0.839 15.633-2.098 19.934-2.623s10.282-1.469 13.115-2.098c2.938-0.63 7.869-1.574 11.016-2.098 3.148-0.63 10.282-2.203 15.738-3.672s11.121-2.938 12.59-3.252c1.469-0.315 4.092-1.259 5.98-2.098 1.784-0.839 3.882-1.469 4.721-1.469 0.734 0 5.875-1.574 11.331-3.567s11.646-4.092 13.639-4.826c5.246-1.784 16.577-6.295 21.508-8.498 2.308-1.049 7.764-3.462 12.066-5.351 29.587-13.115 66.623-35.987 95.475-59.069 49.311-39.449 90.544-91.069 119.082-148.984 12.275-25.075 23.292-53.193 28.852-73.967 1.364-4.931 2.728-9.338 3.148-9.967 0.734-1.049 2.098-7.134 4.302-19.41 0.63-3.777 1.679-7.239 2.098-7.764 0.525-0.63 0.944-3.252 0.944-5.98s0.525-5.351 1.049-5.666c0.63-0.315 1.049-2.833 1.049-5.561s0.734-9.652 1.574-15.423c0.839-5.77 1.574-12.59 1.574-15.213 0-2.728 0.525-5.351 1.154-5.98 1.784-1.784 0.839-76.38-0.944-78.164-0.734-0.734-1.259-3.987-1.259-7.344 0-7.449-1.993-22.033-3.252-23.292-0.525-0.63-0.944-2.833-0.944-5.036 0-4.511-1.993-14.479-3.148-16.052-0.42-0.525-1.049-2.938-1.364-5.246-0.63-5.036-4.721-20.774-6.61-25.18-0.734-1.679-1.679-5.036-2.098-7.239-0.42-2.308-1.364-5.351-2.098-6.82-0.839-1.469-1.784-4.407-2.098-6.4-0.42-1.993-1.364-4.616-2.098-5.77-0.839-1.154-1.469-3.043-1.469-4.197 0-1.259-0.42-2.623-0.944-3.148-0.525-0.63-3.043-6.295-5.666-12.695-4.302-10.597-16.472-35.777-22.977-47.633-7.449-13.639-27.069-42.807-39.869-59.279-5.875-7.659-20.879-23.816-37.98-41.128-15.528-15.738-27.908-28.643-27.384-28.643 1.259 0-3.777-5.246-6.295-6.61-1.889-0.944-1.993-0.944-0.63 0.63 2.833 3.462-0.63 1.679-4.197-2.098-2.203-2.518-2.623-3.148-0.944-1.889 2.203 1.679 2.098 1.469-0.525-1.469-3.357-3.672-10.807-8.393-7.974-5.036 2.413 2.938-0.42 1.993-3.148-1.049-1.889-2.098-1.993-2.518-0.42-1.364l2.098 1.574-2.098-2.518c-2.623-3.148-24.236-17.416-27.803-18.361l-2.623-0.734 2.623 1.574c2.518 1.469 2.413 1.469-2.098 0.944-2.728-0.315-8.079-2.518-12.59-5.036-9.652-5.456-26.649-14.164-27.593-14.164-0.42 0-4.616-1.784-9.338-4.092-4.826-2.203-14.164-5.98-20.774-8.393s-13.43-5.036-15.213-5.875c-1.679-0.839-5.456-1.993-8.393-2.623-2.833-0.63-5.666-1.574-6.295-1.993-0.525-0.525-3.043-1.259-5.456-1.679-2.518-0.42-4.721-1.049-5.036-1.574s-2.518-1.154-5.036-1.574c-2.413-0.42-6.4-1.364-8.813-2.203-2.518-0.734-6.925-1.889-9.967-2.413-3.043-0.63-10.072-1.993-15.528-3.148s-12.38-2.098-15.213-2.098c-2.938-0.105-5.875-0.63-6.4-1.154-2.308-2.308-43.541-3.357-79.633-2.098-38.505 1.364-47.738 1.889-49.311 3.148-0.525 0.42-4.616 1.364-8.918 1.993-8.079 1.259-23.082 4.826-26.754 6.4-1.154 0.525-4.302 1.154-7.030 1.574-2.728 0.315-5.246 1.049-5.561 1.469-0.21 0.525-2.308 1.154-4.511 1.574-2.308 0.315-5.456 1.364-7.134 2.203s-3.987 1.574-5.141 1.574c-1.259 0-2.623 0.42-3.148 0.944-0.63 0.525-5.77 2.413-11.541 4.302s-12.38 4.302-14.793 5.351c-2.308 1.049-4.616 1.993-5.036 1.993-1.049 0-15.843 6.82-32.105 14.898-76.8 37.98-143.843 101.456-185.39 175.528-10.387 18.57-16.052 29.167-16.052 30.216 0 0.525-0.944 2.728-2.098 4.826s-4.197 9.233-6.925 15.843c-2.623 6.61-5.246 12.485-5.77 13.115-0.525 0.525-0.944 1.574-0.944 2.413s-0.63 2.938-1.469 4.721c-0.839 1.889-1.993 5.561-2.728 8.393-0.734 2.728-1.784 5.246-2.203 5.561-0.525 0.315-0.944 1.679-0.944 3.043s-0.42 2.833-1.049 3.148c-0.525 0.315-1.049 1.784-1.049 3.252 0 1.364-0.42 3.462-1.049 4.616-0.525 1.154-1.469 3.043-2.098 4.197-0.525 1.154-1.049 3.882-1.049 6.085s-0.42 4.407-0.944 5.036c-1.154 1.259-3.252 10.072-3.252 13.744 0 1.679-0.42 3.462-1.049 4.092-0.525 0.525-1.469 5.456-2.098 10.911s-1.469 11.121-2.098 12.59c-1.574 4.302-3.148 17.207-3.148 26.125 0 4.616-0.525 8.708-1.049 9.023-1.364 0.839-1.364 39.134 0 57.705 0.525 7.554 1.259 18.57 1.679 24.656s1.154 11.541 1.574 12.17c0.525 0.63 1.259 5.351 1.574 10.492 0.42 5.141 1.049 9.862 1.469 10.387 0.525 0.63 1.364 4.092 2.098 7.869 2.308 12.8 3.462 17.941 4.407 18.466 0.42 0.315 0.839 2.203 0.839 4.302 0 1.993 0.734 5.141 1.574 6.925 0.839 1.889 2.728 7.344 4.302 12.275 3.672 11.961 12.485 35.672 16.262 43.856 1.679 3.672 3.043 7.030 3.043 7.344 0 0.734 16.157 31.895 19.41 37.456 7.869 13.639 26.020 40.393 36.407 53.718 12.695 16.052 24.656 29.377 45.639 50.78 9.967 10.177 17.941 18.675 17.626 18.99-0.315 0.21 0.734 1.574 2.308 3.043 1.574 1.364 2.203 1.679 1.469 0.734-2.623-3.462 0.525-1.889 4.197 1.993 3.252 3.567 3.252 3.777 0.42 1.364-2.833-2.308-2.728-2.203 0.525 1.469 8.498 9.233 36.826 28.643 33.049 22.662-1.889-3.148 5.456-0.105 18.151 7.554 14.689 8.708 34.308 18.78 48.472 24.97 4.302 1.889 9.338 3.987 11.016 4.721 1.784 0.839 8.603 3.357 15.213 5.875 6.61 2.413 13.534 4.931 15.213 5.666 1.784 0.734 5.561 1.889 8.603 2.623 5.036 1.154 9.967 4.616 8.708 6.085-0.315 0.42 0.42 0.839 1.574 0.944l2.098 0.315-2.098-1.049c-1.574-0.839-0.315-0.944 4.616-0.63 6.505 0.42 9.023 1.574 9.023 4.092 0 0.734 1.154 1.364 2.623 1.469l2.623 0.21-2.623-0.839c-5.875-2.098 6.085-1.154 19.934 1.574 14.898 2.833 17.207 3.567 17.416 5.561 0.105 0.63 0.21 1.364 0.315 1.679 0 0.315 2.308 0.42 5.141 0.42l4.931-0.21-4.197-0.839zM453.246 836.511c-12.695-1.993-27.698-4.826-32-5.98-2.833-0.839-8.184-1.993-11.751-2.623-9.548-1.784-36.197-10.911-52.669-17.941-22.557-9.652-32.734-15.108-37.351-20.039-2.308-2.413-3.462-3.987-2.623-3.567 1.259 0.734 1.364 0.63 0.315-0.63-0.734-0.944-6.505-4.826-12.905-8.708-24.866-15.213-45.954-31.895-69.875-55.397-8.708-8.603-16.052-15.318-16.367-15.003-0.63 0.63-27.384-27.174-28.013-29.167-0.21-0.734-1.679-2.728-3.252-4.511-3.252-3.777-11.541-16.367-21.193-32.42-5.561-9.233-18.151-34.203-20.354-40.393-0.944-2.623-2.518-6.4-3.567-8.393s-3.148-7.659-4.826-12.59c-1.574-4.931-3.462-10.282-4.197-12.066-1.889-4.721-5.456-17.311-6.19-22.033-0.42-2.308-1.049-4.616-1.574-5.246-0.42-0.525-1.049-2.938-1.469-5.246-0.315-2.308-0.944-5.875-1.259-7.869s-0.944-4.616-1.469-5.77c-0.944-1.993-1.469-6.085-2.728-18.361-0.315-3.148-1.049-6.19-1.574-6.82-1.364-1.364-1.259-105.128 0.105-105.967 0.63-0.315 1.049-3.462 1.049-6.82s0.42-6.4 0.944-6.715c0.42-0.315 1.154-3.777 1.469-7.659 0.944-10.807 13.115-55.816 16.472-60.643 0.315-0.525 1.259-3.148 1.993-5.77 1.993-6.715 12.905-31.161 19.725-44.066 16.682-31.266 31.266-51.83 51.62-72.603 8.813-9.128 16.472-16.367 16.892-16.052 0.315 0.21 3.252-2.098 6.295-5.246 3.148-3.148 5.246-5.77 4.721-5.77-1.784 0 25.915-27.279 34.098-33.574 39.030-30.007 90.859-54.767 137.967-65.993 7.554-1.784 15.318-3.777 17.416-4.302 2.098-0.63 5.036-1.049 6.61-1.049 1.469 0 3.567-0.42 4.616-0.944 3.357-1.784 29.062-4.302 41.757-4.092 12.275 0.21 12.38 0.21 4.092 0.839-6.19 0.525-3.043 0.734 12.066 0.839 11.226 0.105 29.482 0.42 40.393 0.63 12.066 0.315 17.626 0.105 14.164-0.315-4.092-0.63-1.784-0.734 7.869-0.525 15.528 0.315 25.705 1.259 27.279 2.518 0.63 0.42 3.252 1.154 5.98 1.574 4.826 0.734 6.925 1.993 7.030 4.197 0 0.63 1.154 1.154 2.413 1.259 2.308 0.21 2.308 0.21-0.21-0.734-1.889-0.734-0.734-0.944 4.511-0.63 6.925 0.42 10.282 1.784 9.862 4.092-0.105 0.63 0.944 1.364 2.413 1.469l2.623 0.21-2.623-0.839c-2.098-0.734-1.364-0.944 3.357-1.049 3.252-0.105 6.19 0.315 6.505 0.839s2.623 1.259 5.246 1.574c2.518 0.42 6.4 1.679 8.603 2.728 2.203 1.154 4.721 2.098 5.666 2.098s3.357 0.944 5.561 1.993c2.098 1.049 5.036 2.308 6.505 2.623 3.357 0.839 11.016 4.302 28.328 12.695 9.652 4.721 14.898 7.974 17.836 11.121 2.308 2.413 3.462 3.987 2.623 3.567s-0.63 0.105 0.525 1.364c1.154 1.154 3.252 2.413 4.721 2.833 2.518 0.734 2.518 0.734 0.525-0.944-1.154-0.839-1.574-1.679-0.944-1.679s1.784 0.734 2.518 1.574c0.734 0.839 0.944 1.574 0.525 1.574-3.043 0 14.374 12.38 21.403 15.318l3.777 1.469-2.623-2.098c-1.469-1.154-2.098-2.098-1.469-2.098 1.469 0 5.351 4.197 4.721 5.141-0.315 0.315 2.098 2.728 5.246 5.246 18.675 15.003 29.167 24.026 40.918 35.462 7.239 7.134 13.43 12.695 13.744 12.38 0.839-0.839 28.118 27.489 28.118 29.167 0 0.839 1.049 2.308 2.203 3.462 2.728 2.413 13.639 18.675 22.977 34.203 5.351 8.918 18.675 35.777 22.557 45.43 1.574 4.092 3.252 8.289 3.777 9.443 2.833 6.505 8.289 22.977 8.289 25.18 0 1.364 0.525 2.833 1.049 3.148 0.63 0.315 1.049 1.993 1.049 3.567s0.42 3.252 0.944 3.777c1.469 1.469 5.351 17.521 5.351 21.928 0 1.993 0.525 3.987 1.049 4.302 0.63 0.315 1.049 2.728 1.049 5.246s0.525 4.931 1.049 5.246c0.63 0.315 1.049 3.148 1.049 6.295s0.525 5.98 1.049 6.295c0.63 0.42 0.944 6.925 0.839 16.577-0.105 12.17-0.315 14.269-0.839 9.128-0.42-3.777-0.734 11.646-0.734 34.098 0 22.557 0.315 37.875 0.734 34.098 0.525-5.246 0.734-3.357 0.839 8.603 0.105 9.338-0.21 15.633-0.839 16.052-0.525 0.315-1.049 3.462-1.049 6.82s-0.42 6.505-1.049 6.82c-0.525 0.315-1.049 2.413-1.049 4.511s-0.734 5.98-1.574 8.498c-0.944 2.518-1.889 6.715-2.308 9.443-0.315 2.623-0.944 5.351-1.364 5.875-0.525 0.63-1.469 3.987-2.098 7.659-0.734 3.567-1.784 6.82-2.203 7.134-0.525 0.315-0.944 1.889-0.944 3.567s-0.42 3.252-0.944 3.567c-0.42 0.315-1.154 2.413-1.574 4.511-0.315 2.203-1.259 5.246-1.993 6.715-0.839 1.469-1.784 3.987-2.203 5.456-0.315 1.574-1.889 5.561-3.357 8.918-1.469 3.252-3.148 6.925-3.567 8.079-8.289 21.193-24.236 49.626-40.184 71.659-7.554 10.492-35.777 41.338-37.351 40.813-1.049-0.315-33.679 30.951-33.154 31.79 0.944 1.469-20.249 20.879-29.902 27.489-27.593 18.885-60.118 35.357-95.475 47.948-9.338 3.357-19.62 6.4-21.718 6.4-1.259 0-2.623 0.525-2.938 1.049-0.315 0.63-1.784 1.049-3.148 1.049-2.623 0-7.449 0.944-18.885 3.882-3.462 0.839-10.911 1.993-16.682 2.413-5.666 0.42-10.807 1.364-11.436 1.993-0.839 0.839-17.102 1.154-55.292 1.049-29.692-0.105-55.187-0.42-56.656-0.63zM522.807 771.357c4.826-2.203 7.239-4.092 9.128-7.134 3.567-5.456 5.246-9.443 5.246-12.275 0-1.364 0.42-2.833 1.049-3.462s1.154-52.459 1.259-146.99l0.315-145.941 48.787-49.207c51.83-52.039 64.63-65.889 68.721-74.177 6.295-12.695 0.21-28.643-13.43-35.357-5.666-2.833-7.239-3.148-12.275-2.518-11.016 1.154-13.115 2.413-27.174 15.318-27.489 25.18-113.207 112.262-118.452 120.341-2.413 3.777-3.148 49.416-3.252 199.869l-0.105 124.643 3.252 4.721c4.511 6.61 6.925 8.603 14.059 12.066 8.289 3.987 14.164 3.987 22.872 0.105zM220.538 473.81c10.177-5.875 17.626-18.256 18.466-30.741 0.42-7.134 0.21-8.079-3.357-15.528-3.567-7.134-11.646-16.262-14.479-16.262-0.42 0-3.043-1.049-5.666-2.203-3.882-1.889-5.98-2.203-11.751-1.679-17.102 1.364-29.062 10.492-34.518 25.915-1.574 4.302-1.784 13.954-0.42 16.577 0.525 0.944 2.203 4.407 3.672 7.554s5.351 8.708 8.498 12.275c6.61 7.449 7.344 7.659 24.656 7.134 8.603-0.21 10.702-0.63 14.898-3.043zM825.915 476.328c2.203-0.63 6.925-3.148 10.492-5.561 5.141-3.462 7.239-5.666 9.548-10.177 9.548-18.885 2.938-45.010-12.485-49.311-2.623-0.734-4.931-1.784-5.246-2.203-0.315-0.525-5.666-0.944-11.961-0.944-11.121 0-11.541 0.105-17.731 3.672-7.030 4.197-11.226 8.918-15.318 17.626-2.518 5.246-2.833 6.925-2.413 13.115 1.154 14.164 8.708 25.81 20.879 31.895 4.511 2.308 7.134 2.938 13.010 2.938 4.092 0 9.128-0.525 11.226-1.049zM522.702 169.967c9.023-3.462 14.898-8.393 18.151-15.423 1.574-3.357 3.252-6.925 3.777-7.869 1.259-2.413 1.259-18.151 0-20.564-0.525-0.944-2.203-4.511-3.777-7.764-1.993-4.407-4.092-6.925-7.869-9.652-2.938-2.098-5.98-3.777-6.715-3.777-0.839 0-1.889-0.42-2.203-1.049-0.42-0.63-5.77-1.049-12.59-1.049-10.807 0-12.38 0.21-17.207 2.728-6.925 3.672-12.066 8.918-15.528 16.052-2.518 5.036-2.938 7.239-2.938 14.793 0 7.659 0.42 9.757 2.938 14.898 3.567 7.344 9.233 13.22 16.577 17.416 4.826 2.623 6.82 3.148 13.744 3.252 5.77 0.105 9.652-0.525 13.639-1.993z" />
<glyph unicode="&#xe908;" glyph-name="catalog" d="M112.431 958.328c-40.856-7.419-77.74-34.586-96.653-71.471-6.374-12.33-8.882-18.599-12.434-31.869l-2.821-10.449-0.313-385.567c-0.209-427.154-0.836-392.986 6.583-415.033 13.897-41.587 45.871-73.665 87.353-87.458 21.943-7.419-2.090-6.896 335.83-6.896h305.215l4.598 2.299c2.508 1.358 6.060 4.18 7.732 6.374 3.030 3.762 3.239 4.702 3.239 12.121 0 9.195-2.090 13.375-8.673 17.972l-3.762 2.508-307.2 0.522c-288.496 0.522-307.722 0.731-314.096 2.403-39.602 10.658-66.247 38.975-73.665 78.263-1.463 7.732-1.567 48.065-1.358 386.926l0.313 378.253 2.299 8.15c5.224 18.286 14.42 33.75 27.585 46.184 13.27 12.539 27.481 20.376 43.781 24.242 7.419 1.776 28.421 1.881 396.539 1.881 367.073 0 389.12-0.104 395.807-1.881 28.526-7.314 52.036-26.749 64.575-53.394 2.299-4.911 5.224-12.539 6.478-17.032l2.299-8.15 0.522-319.425 0.522-319.321 3.135-4.598c8.046-11.494 24.242-12.225 33.646-1.567 1.881 2.090 3.657 5.329 3.971 7.21s0.418 147.853 0.313 324.232l-0.313 320.784-2.821 10.449c-7.419 27.272-20.584 49.946-39.393 67.605-18.286 17.241-37.407 27.69-62.798 34.482l-8.882 2.403-394.449 0.209c-339.174 0.104-395.598-0.104-402.704-1.358zM248.163 738.586c-11.285-2.821-16.718-10.24-15.987-22.152 0.313-5.956 0.836-7.732 3.553-11.076 1.776-2.194 5.224-5.016 7.732-6.269l4.598-2.403h236.774c227.892 0 236.774 0.104 240.849 1.985 15.151 7.001 16.3 28.421 2.090 37.198l-5.016 3.135-235.729 0.209c-129.672 0-237.087-0.209-238.864-0.627zM246.596 572.134c-5.224-1.463-10.136-5.538-12.643-10.449-1.776-3.448-2.090-5.747-1.776-11.389 0.313-6.060 0.836-7.732 3.553-11.076 1.776-2.194 4.807-4.911 6.792-6.060 3.448-2.090 5.433-2.090 105.43-2.090 101.251 0 101.878 0 106.057 2.194 2.299 1.149 5.538 4.075 7.105 6.269 8.255 11.807 2.090 28.839-11.912 32.81-4.807 1.463-197.695 1.254-202.606-0.209zM623.282 544.026c-81.92-8.464-153.809-63.739-184.842-142.002-10.344-26.122-15.464-54.23-15.464-84.114 0-21.211 1.776-36.362 6.374-55.484 11.285-45.976 37.93-89.234 73.143-118.7 31.869-26.54 66.351-42.736 106.684-50.155 16.3-3.030 57.574-3.344 73.665-0.522 36.362 6.374 69.486 20.48 97.489 41.587 5.329 3.971 9.822 7.21 10.031 7.21s45.453-45.662 100.519-101.564c61.753-62.589 101.46-101.982 103.549-102.922 7.628-3.135 19.749-0.94 24.451 4.493 5.016 5.747 6.687 16.509 3.762 23.719-0.836 1.985-42.632 45.14-101.878 105.221l-100.415 101.878 2.612 3.135c6.687 8.255 19.958 29.362 25.496 40.856 15.256 31.138 22.988 65.097 22.988 101.251 0 37.198-7.419 69.277-23.615 101.878-18.39 36.989-44.095 66.142-78.576 89.13-41.378 27.481-94.981 40.438-145.972 35.109zM677.825 500.14c65.62-10.867 121.208-59.664 142.42-124.97 6.583-20.062 8.673-33.855 8.673-56.738 0.104-20.898-1.254-32.078-6.165-50.051-17.972-66.247-72.098-117.656-138.867-131.866-60.291-12.748-124.552 7.523-167.393 52.663-86.622 91.533-60.186 240.64 52.454 295.393 34.586 16.823 70.531 21.943 108.878 15.569zM242.939 390.844c-7.419-3.866-10.971-9.822-10.971-18.495 0-9.613 3.762-15.673 12.016-19.54 3.866-1.776 7.419-1.985 42.841-1.985 38.139 0 38.766 0 43.363 2.403 2.508 1.254 5.956 4.075 7.732 6.269 2.612 3.239 3.239 5.12 3.553 10.658 0.627 8.986-2.299 15.151-8.986 19.435l-4.807 3.030h-40.751c-35.213-0.104-41.273-0.313-43.99-1.776zM242.521 210.599c-6.896-3.448-10.553-9.822-10.553-18.599 0-8.882 3.657-15.256 10.762-18.704 4.598-2.194 5.433-2.299 45.349-1.985l40.647 0.313 3.762 2.508c6.583 4.598 8.673 8.777 8.673 17.868s-2.090 13.27-8.673 17.868l-3.762 2.508-40.751 0.313c-40.229 0.209-40.96 0.209-45.453-2.090z" />
<glyph unicode="&#xe909;" glyph-name="contact" d="M490.292 958.952c-19.761-1.198-46.26-3.743-58.386-5.839-87.878-14.522-164.379-47.906-235.789-103.298-21.258-16.318-65.871-60.482-82.040-80.992-34.732-44.014-60.182-87.729-78.596-135.186-50.901-130.695-45.811-277.109 13.923-403.612 25.45-53.745 57.039-98.208 101.801-142.821 56.14-56.14 112.43-92.37 185.637-119.467 108.538-40.122 233.544-41.469 329.357-3.743 40.87 16.168 65.722 32.037 96.412 61.829 72.908 70.662 83.836 151.055 31.139 232.047-22.756 35.032-61.979 73.207-104.196 101.352-17.815 11.977-23.953 14.222-36.978 14.522-8.533 0.15-11.228-0.599-21.708-5.689-10.48-5.24-14.971-8.982-38.924-32.636-14.821-14.671-27.846-26.648-28.744-26.648-9.581 0-102.25 93.867-133.839 135.485-23.654 31.139-43.265 70.662-43.116 86.681 0.15 4.94 5.24 9.731 22.456 20.36 17.067 10.629 43.116 30.091 49.703 37.127 10.48 11.078 13.773 18.564 13.773 30.241 0 5.389-0.898 12.426-1.946 15.719-2.545 7.336-44.463 102.25-56.739 128-9.731 20.36-12.276 23.654-23.504 28.744-6.288 2.844-9.881 3.294-23.205 3.294-13.773-0.15-17.216-0.749-28.295-4.791-52.398-19.612-95.963-58.536-113.478-101.502-12.875-31.588-14.222-65.871-4.791-121.862 18.414-109.736 73.506-210.040 168.87-307.35 72.608-74.105 142.821-119.317 212.435-136.982 28.894-7.186 71.411-4.791 99.406 5.689 15.27 5.689 20.809 16.917 14.372 29.642-6.887 13.623-14.073 15.27-37.876 8.683-20.061-5.539-45.811-5.988-65.422-1.198-76.351 18.713-169.918 89.825-248.515 188.931-63.177 79.644-100.753 173.661-105.394 264.234-2.096 41.020 9.881 70.961 39.373 97.909 13.025 11.977 24.253 19.462 44.763 29.492 12.575 6.138 18.264 8.084 23.354 8.084h6.737l4.491-10.030c40.271-89.525 52.847-117.67 52.847-119.467 0-2.994-15.27-16.019-25.6-21.857-29.343-16.618-48.954-32.487-55.542-45.212-10.629-20.51 4.192-69.614 35.63-117.221 21.558-32.786 45.96-61.23 94.016-109.287 68.416-68.416 86.082-77.099 116.173-56.889 3.743 2.395 18.264 15.719 32.337 29.642 14.073 13.773 26.498 25.151 27.546 25.151 2.844 0 24.402-14.821 41.918-29.043 43.265-34.582 73.506-75.153 84.136-112.58 8.982-32.337-0.449-70.961-25.899-105.694-38.026-51.649-94.465-82.339-176.655-95.813-17.665-2.994-25.6-3.294-65.722-3.294-49.404 0-64.524 1.497-104.047 10.33-172.613 38.774-313.039 178.901-351.663 351.364-9.282 41.469-10.48 53.595-10.48 104.496s1.198 63.476 10.48 104.496c38.625 172.313 178.901 312.589 351.214 351.214 41.020 9.282 53.595 10.48 104.496 10.48s63.027-1.198 104.496-10.48c121.563-27.247 232.646-108.089 296.571-215.729 32.337-54.643 51.799-108.987 61.979-174.11 4.342-27.846 4.641-100.454 0.599-128-9.132-61.081-26.798-113.628-54.943-163.93-10.629-19.163-11.827-24.253-7.785-33.385 3.593-8.234 10.030-11.977 19.911-12.126 11.228 0 15.42 3.593 26.199 22.756 52.847 95.364 74.704 211.687 59.584 317.68-13.474 94.915-49.853 178.002-111.233 254.503-15.57 19.462-54.194 57.937-74.255 73.956-63.177 50.451-133.539 84.435-211.088 101.951-40.421 9.132-94.465 13.923-131.743 11.677z" />
<glyph unicode="&#xe90a;" glyph-name="delivery" horiz-adv-x="1297" d="M938.005 958.677c-278.094-0.794-313.55-1.058-318.313-2.911-7.806-3.043-21.433-10.055-28.312-14.685-12.965-8.599-18.919-15.744-30.694-36.779l-6.88-12.436-0.529-384.595-0.529-384.728h75.411c41.41 0 95.785 0.397 120.922 0.926l45.776 0.794 2.249 8.203c2.911 10.849 14.553 34.795 23.152 47.76 8.996 13.362 34.663 38.896 48.289 47.893 21.565 14.288 44.717 23.946 71.31 29.635 19.051 4.101 52.655 4.101 71.706 0 38.632-8.335 62.842-21.829 94.33-52.391 20.374-19.977 25.931-27.783 40.087-57.286l12.304-25.534h138.253v837.457l-22.756-0.265c-12.568-0.132-163.655-0.661-335.777-1.058zM1250.233 540.61v-371.762h-65.488l-5.292 10.187c-13.098 25.137-24.872 41.674-41.674 58.476-33.736 33.736-77.263 57.021-124.494 66.547-12.833 2.514-19.051 3.043-42.204 3.043s-29.371-0.529-42.204-3.043c-61.652-12.436-118.011-49.083-150.822-98.166-4.101-6.218-10.452-17.067-14.024-24.211l-6.615-12.833h-158.098v331.808c0.132 183.5 0.661 342.921 1.323 356.68 1.191 24.211 1.323 25.402 5.292 33.472 7.144 14.288 16.405 18.787 42.204 20.242 9.922 0.529 149.366 1.058 310.111 1.058l291.986 0.265v-371.762zM220.279 770.811c-15.876-1.72-32.413-9.79-44.453-21.565-4.366-4.101-11.775-14.553-18.919-26.063-26.989-43.924-94.991-162.199-125.156-217.633-20.903-38.499-26.195-52.92-29.238-79.38-1.984-18.257-3.175-229.54-1.455-253.751 1.323-17.199 1.72-18.654 5.689-24.872 10.452-16.405 32.678-26.592 53.184-24.475 11.245 1.191 25.534 8.070 34.001 16.537 3.572 3.572 10.452 12.701 15.347 20.242 17.86 27.651 21.3 32.413 33.604 45.114 16.273 17.067 31.355 28.312 50.935 37.97 48.686 23.946 102.797 24.74 154.261 1.984 20.506-8.996 37.838-21.168 56.095-39.558 22.359-22.491 35.853-42.997 46.437-70.913l4.234-11.245 25.402-0.397 25.534-0.265-0.661 304.157-0.529 304.157-5.557 8.335c-6.483 9.922-17.86 21.433-28.048 28.18l-7.276 4.763-117.085-0.132c-64.43-0.132-121.187-0.661-126.346-1.191zM459.080 722.522c2.117-3.44 3.307-8.335 4.234-18.919 1.72-16.67 1.72-470.59 0.132-481.439l-1.058-6.747-16.537 15.744c-29.635 28.444-45.114 39.822-73.426 53.449-47.628 23.152-99.357 29.106-149.763 17.199-25.931-6.218-55.434-19.183-79.909-35.192-21.962-14.421-52.788-47.099-71.839-76.337-13.362-20.506-19.58-25.137-25.402-18.39-2.646 3.043-3.043 5.424-3.837 24.343-1.323 26.328 0.265 204.8 1.984 225.571 0.661 8.467 2.249 18.125 3.307 21.433 4.366 12.568 96.050 177.017 137.856 247.136 11.51 19.316 13.098 21.433 19.977 25.798 4.101 2.646 10.055 5.689 13.362 6.747 9.129 2.911 39.822 3.704 143.942 3.969l94.065 0.265 2.911-4.63zM233.774 675.952c-13.891-22.226-130.712-225.703-129.918-226.365 0.529-0.529 70.251-1.191 154.923-1.323l153.997-0.529v233.112h-175.959l-3.043-4.895zM366.47 563.762v-69.457h-186.807l1.852 3.043c2.911 4.234 19.713 33.736 48.686 84.936 13.891 24.74 26.195 46.305 27.254 48.025l1.852 2.911h107.163v-69.457zM254.677 213.697c-31.090-4.366-55.566-15.876-76.866-36.118-25.137-23.682-39.161-52.258-42.865-87.318-2.646-23.682 1.455-50.142 11.113-72.236 13.098-30.297 40.616-57.55 70.78-70.251 18.257-7.673 30.032-9.658 56.36-9.79 27.783 0 39.161 2.249 59.667 11.907 17.199 8.070 27.254 15.214 40.881 29.106 22.226 22.491 34.266 48.554 37.97 81.761 4.63 41.939-10.452 85.333-39.955 114.572-29.767 29.503-75.146 44.32-117.085 38.367zM294.499 165.54c10.716-2.778 30.164-12.304 38.632-19.051 8.864-7.012 17.728-18.919 24.211-32.546 6.218-12.833 8.467-27.518 7.409-47.893-0.926-15.611-3.572-23.549-13.627-39.69-8.070-13.098-17.067-21.829-30.826-30.032-17.067-10.319-21.168-11.245-46.040-11.378-24.343 0-31.090 1.455-45.379 9.79-19.58 11.51-28.841 21.3-38.367 41.013-6.747 14.024-9.526 26.195-9.393 41.807 0 15.214 2.381 24.872 9.658 39.69 7.144 14.685 24.74 32.81 38.764 39.955 22.226 11.245 42.865 13.891 64.959 8.335zM952.558 213.697c-59.27-6.747-107.030-51.597-118.276-110.999-2.646-13.891-2.646-38.896-0.132-53.052 8.203-43.791 33.604-78.586 71.442-97.505 21.3-10.716 39.028-14.818 63.901-14.818 58.080 0 103.723 28.312 127.405 78.851 10.981 23.285 15.744 55.301 11.775 79.644-10.055 62.578-60.593 110.867-123.436 117.879-14.156 1.588-18.39 1.588-32.678 0zM982.193 167.525c19.977-2.911 42.733-14.288 55.566-27.783 7.938-8.335 16.67-22.491 21.036-33.869 2.514-7.012 2.911-10.319 2.911-30.958v-23.152l-5.557-11.51c-12.568-26.195-23.946-37.838-49.083-49.745l-10.187-4.895h-51.994l-14.421 7.276c-20.11 10.055-31.62 21.697-41.278 41.145-3.837 7.806-7.673 17.728-8.732 23.020-6.35 30.694 2.778 61.122 25.137 83.349 15.611 15.611 32.017 24.211 51.2 26.989 11.51 1.588 14.95 1.588 25.402 0.132z" />
<glyph unicode="&#xe90b;" glyph-name="lens" horiz-adv-x="1029" d="M414.951 959.266c-13.534-0.525-40.708-3.567-55.502-6.19-87.711-15.423-168.079-57.075-230.925-119.711-71.554-71.344-113.836-158.741-126.007-261.036-2.623-21.928-2.623-71.134 0-93.377 10.072-85.613 41.128-160.63 93.692-226.098 13.43-16.787 37.141-41.443 53.298-55.397 113.941-98.623 268.59-130.518 413.902-85.613 37.456 11.646 81.941 33.154 114.57 55.607 6.19 4.302 11.436 7.764 11.751 7.764 0.21 0 1.574-1.993 3.043-4.407 1.469-2.518 51.725-53.403 111.633-113.207l108.905-108.8 8.918-4.302c12.066-5.77 20.354-7.764 33.049-7.869 18.99 0 35.777 6.61 49.416 19.515 12.17 11.541 18.99 23.816 22.033 39.449 3.672 19.095 0.105 37.141-10.702 53.718-3.148 4.931-34.308 36.721-112.262 114.57-59.384 59.174-109.534 108.38-111.318 109.325-1.889 0.944-3.462 1.993-3.462 2.308s3.462 5.77 7.764 12.275c35.882 54.452 58.649 116.144 67.882 183.292 3.043 22.977 3.882 71.344 1.574 95.475-13.010 136.393-86.767 255.266-203.856 328.603-24.656 15.423-64.944 34.098-93.377 43.226-49.731 15.948-102.4 23.082-154.020 20.879zM469.928 834.623c80.052-8.708 155.908-50.466 206.898-113.836 68.511-85.193 87.397-199.554 50.046-302.689-2.308-6.295-8.079-19.515-12.905-29.377-16.157-32.944-32.21-55.397-59.174-82.466-27.698-27.698-49.311-43.331-82.466-59.698-36.616-18.151-72.184-28.013-112.262-31.475-70.82-5.98-145.521 14.059-203.016 54.452-21.508 15.003-50.151 41.757-65.469 60.957-37.351 46.898-59.698 101.246-66.833 163.148-1.889 15.423-1.574 51.934 0.525 68.197 4.826 37.561 13.849 67.882 30.531 101.77 24.341 49.521 61.587 91.489 109.115 122.859 44.38 29.272 99.777 47.213 153.075 49.626 18.99 0.839 34.413 0.42 51.934-1.469z" />
<glyph unicode="&#xe90c;" glyph-name="main" horiz-adv-x="1096" d="M542.075 957.443c-1.583-0.609-10.593-6.697-20.090-13.637s-27.152-19.725-39.207-28.37c-12.054-8.767-28.979-20.943-37.746-27.274-8.645-6.21-22.647-16.316-31.049-22.282-8.401-6.088-19.847-14.368-25.57-18.507s-31.171-22.526-56.618-40.79c-25.448-18.264-50.896-36.65-56.618-40.79s-22.404-16.194-37.137-26.787c-14.733-10.593-31.414-22.647-37.137-26.787s-19.36-14.002-30.44-21.917c-11.080-7.914-24.717-17.777-30.44-21.917s-22.404-16.194-37.137-26.787c-14.733-10.593-31.414-22.647-37.137-26.787s-17.168-12.42-25.57-18.386c-24.352-17.29-31.779-26.422-37.624-46.269-4.14-14.002-2.922-26.787 4.018-42.251 4.262-9.376 26.422-39.815 33.606-46.147 11.567-10.106 26.665-15.585 43.225-15.585 6.819 0 9.619 0.609 13.637 2.922 2.8 1.705 22.039 15.22 42.616 30.075s46.269 33.362 56.984 41.155c10.715 7.671 31.049 22.282 45.051 32.388 14.124 10.228 56.253 40.546 93.755 67.577 37.502 26.909 70.986 51.017 74.273 53.574 3.409 2.435 24.961 18.020 48.095 34.702s52.478 37.867 65.263 47.121c12.907 9.254 23.987 16.803 24.839 16.803 1.339 0 9.619-5.723 52.966-37.137 9.376-6.819 29.101-21.064 43.834-31.658s31.414-22.647 37.137-26.787c5.723-4.14 22.404-16.194 37.137-26.787s31.414-22.647 37.137-26.787c5.723-4.14 27.396-19.725 48.095-34.702 20.821-14.976 42.372-30.562 48.095-34.702s30.318-22.039 54.792-39.572c24.474-17.655 51.748-37.259 60.636-43.712 8.767-6.453 20.212-14.611 25.326-18.020l9.132-6.453h9.984c18.751 0 33.606 5.723 45.295 17.533 7.549 7.671 21.064 25.691 28.857 38.598 5.114 8.645 9.497 23.5 9.497 32.632 0 13.759-6.94 31.414-16.438 42.372-5.966 6.819-5.114 6.21-59.662 45.416-20.699 14.976-42.372 30.562-48.095 34.702s-16.194 11.689-23.378 16.925c-15.342 10.958-22.039 18.873-29.588 34.215-9.254 18.873-9.132 16.438-9.132 109.584-0.122 74.152-0.365 83.649-2.192 90.833-5.601 21.186-24.23 39.815-46.025 45.538-10.958 2.922-66.237 3.044-77.074 0.122-15.829-4.262-28.248-12.907-37.137-26.057-10.471-15.22-10.958-17.655-11.689-58.932-0.365-19.847-0.974-36.528-1.461-36.893-0.487-0.487-2.192-0.609-3.775-0.122-1.583 0.365-25.083 16.681-52.113 36.163-27.031 19.603-54.914 39.694-61.976 44.686-7.062 5.114-21.795 15.707-32.753 23.743-31.049 22.526-32.997 23.621-41.277 20.212zM859.868 918.236c3.166-1.826 7.184-5.236 9.010-7.549 6.575-8.645 6.575-8.888 6.575-97.043 0-88.032 0.122-89.859 6.697-107.514 7.427-19.603 20.456-39.45 32.632-49.678 3.531-2.922 35.067-26.057 70.255-51.383s65.263-47.121 66.846-48.582c8.036-7.062 11.080-24.108 6.21-34.093-1.339-2.8-7.549-11.811-13.759-20.212-12.054-16.072-16.681-19.847-25.935-21.308-5.236-0.852-3.653-1.826-32.145 18.873-7.671 5.601-27.639 19.969-44.442 32.023-16.681 12.054-35.067 25.326-40.79 29.466s-32.266 23.378-59.054 42.616c-92.294 66.603-179.109 129.187-228.908 165.228-37.137 26.787-49.313 35.432-55.279 39.572-5.601 3.775-14.124 3.775-19.725 0-4.627-3.166-36.041-25.813-100.939-72.691-59.175-42.738-184.953-133.449-230.126-165.959-20.456-14.733-41.764-30.196-47.486-34.336s-25.326-18.386-43.712-31.536l-33.24-24.108-5.236 0.731c-8.767 1.339-14.976 6.453-25.57 20.943-13.15 17.777-16.438 24.595-16.438 33.24 0 7.427 2.8 14.733 7.427 19.603 3.166 3.409 4.262 4.14 127.726 93.146 47.243 34.093 95.46 68.794 107.149 77.317 37.137 26.787 133.205 96.19 218.559 157.679 26.787 19.238 49.434 35.676 50.287 36.284 1.096 0.852 3.409-0.244 8.158-3.531 7.793-5.601 60.758-43.834 112.019-80.849 20.090-14.611 39.328-28.127 42.616-30.196 6.575-4.018 18.020-7.549 24.352-7.549 12.42 0 25.813 9.132 31.901 21.673l3.288 6.94 0.731 37.137c0.731 35.067 0.852 37.38 3.409 42.007 3.288 6.21 5.966 9.376 10.593 12.42 7.062 4.749 10.106 5.114 40.79 4.87l29.831-0.244 5.723-3.409zM193.842 454.819c-4.018-1.948-5.723-3.653-7.671-7.914-2.313-5.357-2.313-8.401-1.948-209.792l0.244-204.313 2.8-10.106c7.062-26.544 23.134-49.8 44.686-64.654 10.958-7.671 20.821-12.298 35.31-16.803l10.958-3.409h268.48c258.861 0 268.846 0.122 277.004 2.313 37.746 10.106 66.603 35.189 79.996 69.768 7.306 18.873 7.062 10.715 6.819 233.901l-0.365 203.826-4.505 4.14c-4.018 3.653-5.357 4.14-10.837 4.14-6.819 0-12.907-3.409-15.951-8.888-1.218-2.070-1.705-45.782-2.192-208.453l-0.609-205.774-3.166-8.767c-7.062-18.995-21.917-35.797-39.572-44.321-17.29-8.401-18.264-8.401-99.356-8.158l-72.204 0.365-0.609 139.050-0.609 138.928-3.044 3.288c-6.332 6.94-2.679 6.697-109.584 6.697s-103.252 0.244-109.584-6.697l-3.044-3.288-0.609-138.928-0.609-139.050h-73.665c-81.336 0-79.631-0.122-96.799 7.914-16.316 7.549-28.492 19.482-36.893 36.041-7.306 14.611-6.819-0.609-7.549 222.942-0.609 205.652-0.609 206.018-3.166 209.305-6.21 8.28-13.637 10.593-22.16 6.697zM627.063 98.549v-126.021h-158.288v252.043h158.288v-126.021z" />
<glyph unicode="&#xe90d;" glyph-name="order" horiz-adv-x="1054" d="M38.533 958.228c-22.588-3.455-39.33-24.537-37.293-47.037 1.594-17.539 12.136-31.181 29.32-38.090l5.315-2.126 110.815-0.531 18.868-63.513c39.153-131.366 52.706-176.808 70.511-236.689 25.069-84.241 42.785-143.679 60.235-202.32l14.793-49.517-4.872-10.275c-8.858-18.691-13.199-30.826-16.653-47.125-1.594-7.175-1.949-12.224-2.037-22.943 0-16.653 1.772-25.069 8.238-38.533 14.527-30.383 45.088-47.568 92.213-51.82 15.236-1.329 20.197-1.152 58.818 2.215 76.357 6.644 161.484 13.11 233.943 17.716 95.048 6.112 189.741 9.301 229.16 7.707 11.073-0.443 22.234-0.443 24.714-0.089 18.336 2.923 31.624 21.525 28.346 39.596-2.215 11.87-9.212 20.905-20.108 26.043-5.226 2.48-6.998 2.746-18.336 3.455-70.599 4.075-259.366-5.669-478.959-24.714-30.561-2.657-39.684-3.189-48.277-2.746-18.956 1.152-32.332 5.049-37.647 11.161-2.48 2.746-2.657 3.455-2.657 9.833 0 9.301 4.429 25.866 6.909 25.866 0.709 0 32.687 3.809 70.954 8.415 38.267 4.695 87.784 10.63 109.929 13.287 22.145 2.746 51.643 6.289 65.55 7.972s38.444 4.695 54.478 6.644c16.122 1.949 42.43 5.138 58.464 7.087 44.999 5.403 134.555 16.21 179.82 21.702 26.22 3.189 42.608 5.492 45.974 6.644 6.998 2.303 12.844 6.289 18.425 12.224 8.77 9.655 7.441 4.075 32.244 132.783 58.198 301.619 53.68 277.437 53.149 284.169-1.417 17.982-12.224 32.155-29.409 38.799l-5.226 1.949-760.293 0.443-1.417 4.252c-0.709 2.303-8.947 29.852-18.248 61.298s-18.071 59.527-19.399 62.45c-5.758 12.579-19.576 22.588-33.749 24.36-7.795 0.974-140.047 0.974-146.602 0zM501.37 647.308v-70.865h-87.607c-82.735 0-87.696 0.089-88.138 1.594-12.579 41.279-41.102 138.807-40.747 139.338 0.266 0.443 47.302 0.797 108.512 0.797h107.981v-70.865zM723.709 647.308v-70.865h-180.706v70.245c0 38.71 0.266 70.599 0.62 70.865 0.266 0.354 40.925 0.62 90.353 0.62h89.733v-70.865zM955.172 717.553c0.266-0.443-5.669-32.155-13.021-70.688l-13.464-69.979-163.344-0.443v70.245c0 38.71 0.266 70.599 0.62 70.865 0.797 0.886 188.767 0.797 189.21 0zM501.37 451.986v-82.824l-1.949-0.354c-1.152-0.266-13.996-1.86-28.612-3.632-14.616-1.683-38.267-4.518-52.617-6.289-14.262-1.683-26.131-3.012-26.22-2.835-0.177 0.177-8.77 28.612-19.045 63.158-10.275 34.635-22.057 74.143-26.22 87.873-4.075 13.819-7.441 25.689-7.441 26.397 0 1.152 9.567 1.329 81.052 1.329h81.052v-82.824zM723.709 465.273c0-38.267-0.266-69.536-0.62-69.536-0.62 0-17.008-1.949-121.799-14.616-30.029-3.632-55.452-6.644-56.515-6.644-1.772 0-1.772 0.089-1.772 79.546 0 43.759 0.266 79.9 0.62 80.166 0.266 0.354 40.925 0.62 90.353 0.62h89.733v-69.536zM920.094 532.329c-0.266-1.329-5.403-27.815-11.338-58.729-5.935-30.826-10.896-56.249-10.984-56.426-0.443-0.531-130.923-16.033-131.632-15.59-0.886 0.531-1.063 131.72-0.177 132.606 0.266 0.354 35.255 0.62 77.597 0.62h77.066l-0.531-2.48zM345.467 112.277c-52.706-6.112-87.961-57.755-74.851-109.487 12.667-49.96 67.322-78.394 115.687-60.235 11.781 4.429 21.26 10.453 30.561 19.576 12.49 12.224 19.842 24.803 23.917 41.102 7.707 30.118-1.063 61.83-23.12 83.798-18.602 18.691-45.974 28.257-72.194 25.246zM845.952 112.277c-47.125-5.403-82.381-49.428-77.154-96.376 4.163-37.027 29.586-66.525 65.55-76.18 7.441-1.949 10.187-2.215 22.234-2.215 11.073 0 15.059 0.354 20.551 1.86 35.167 9.567 60.058 36.673 65.904 71.839 5.403 32.864-9.39 67.41-37.027 86.101-17.096 11.604-39.773 17.273-60.058 14.97z" />
<glyph unicode="&#xe90e;" glyph-name="payment_rubles" d="M474.384 958.955c-46.498-2.090-103.027-14.942-154.645-35.213-15.151-5.956-50.26-22.988-65.306-31.66-125.701-72.307-214.413-195.5-243.879-338.547-7.419-35.944-10.031-63.112-10.031-104.49 0.104-85.786 15.256-151.406 53.185-229.355 16.614-34.168 28.108-53.081 48.797-80.457 33.959-45.035 76.173-85.055 122.88-116.297 77.322-51.722 169.587-81.92 263.419-85.891 160.601-7.001 309.394 57.574 414.302 179.722 62.067 72.202 104.385 168.856 116.611 265.927 11.18 89.339-1.254 184.424-34.482 261.851-30.198 70.844-60.813 116.297-113.685 169.273-70.113 70.113-160.183 117.133-263.941 137.718-8.568 1.672-19.435 3.553-24.033 4.18-22.465 2.926-77.531 4.598-109.192 3.239zM556.408 928.549c18.286-1.463 48.379-6.687 70.008-12.016 117.864-29.466 218.906-101.042 287.66-203.86 36.258-54.23 61.336-116.924 72.725-181.603 5.538-31.556 6.374-42.318 6.374-83.069s-0.836-51.409-6.374-83.069c-14.106-80.875-50.469-158.511-105.117-224.131-22.047-26.436-55.38-58.096-83.383-78.994-86.831-64.888-190.485-97.907-298.318-95.19-110.446 2.821-210.129 40.856-297.273 113.476-15.569 12.957-47.961 45.349-60.709 60.709-65.515 78.89-102.922 169.691-110.655 268.957-1.358 17.345-1.358 58.201 0 75.442 4.389 54.857 16.823 105.744 38.139 154.54 32.287 74.292 86.727 142.42 155.69 194.873 66.456 50.573 149.525 84.010 229.878 92.473 31.347 3.344 71.367 3.971 101.355 1.463zM367.804 560.849v-144.196h-64.784v-32.392l32.183-0.209 32.078-0.313v-63.739l-32.078-0.313-32.183-0.209v-31.347l32.183-0.209 32.078-0.313 0.313-48.274 0.209-48.379h31.347l0.209 48.379 0.313 48.274 112.327 0.522v31.347l-112.327 0.522-0.313 31.974-0.209 32.078 66.56 0.522c67.918 0.522 76.487 0.94 96.758 5.016 38.243 7.628 76.069 29.466 95.086 54.753 11.285 15.151 21.838 37.198 25.809 54.23 4.702 19.958 5.433 63.007 1.463 85.264-5.224 29.78-21.629 59.141-44.095 78.785-26.854 23.51-66.351 38.452-109.087 41.378-8.15 0.522-48.483 1.045-89.339 1.045h-74.501v-144.196zM506.776 672.653c25.496-0.731 34.168-1.358 43.363-3.135 28.839-5.642 52.14-16.509 70.217-32.81 12.748-11.494 25.078-32.183 31.347-52.349 2.821-9.3 2.821-9.718 2.926-39.184 0-33.332-0.313-35.318-8.464-54.857-17.345-41.378-58.723-67.709-113.789-72.516-6.896-0.627-39.706-1.149-72.829-1.149h-60.395v127.791c0 70.322 0.313 128.209 0.731 128.522 0.94 1.045 69.068 0.836 106.893-0.313z" />
<glyph unicode="&#xe90f;" glyph-name="price_list" horiz-adv-x="745" d="M10.744 956.81c-2.854-1.847-6.043-5.708-7.218-8.729-1.343-3.861-1.847-121.369-1.847-441.327 0-239.885 0.504-438.473 1.007-441.327 0.671-2.854 3.19-7.386 5.54-9.904 2.518-2.518 30.216-29.881 61.608-61.104 61.104-60.601 62.951-61.944 73.359-56.404 2.35 1.175 28.202 25.18 57.411 53.382 29.041 28.202 53.718 51.2 54.557 51.2s25.684-23.502 55.229-52.375c32.063-31.391 55.397-52.879 57.915-53.55 2.35-0.504 6.379-0.504 8.897 0.168 2.686 0.671 24.677 20.984 57.915 53.886 29.545 29.041 54.222 52.711 55.061 52.375 0.671-0.336 25.18-23.502 54.222-51.536s54.893-52.207 57.411-53.382c10.744-5.708 12.254-4.532 73.694 56.236 31.391 31.224 59.090 58.586 61.608 61.104 2.35 2.518 4.868 7.050 5.54 9.904 0.504 2.854 1.007 201.61 1.007 441.663 0 477.755 0.671 444.852-9.904 450.224-4.532 2.35-41.128 2.686-361.422 2.686-347.321 0-356.553-0.168-361.59-3.19zM708.407 501.214v-423.365l-49.353-49.353c-27.195-27.027-50.193-49.018-51.032-48.682-1.007 0.336-20.48 18.801-43.478 41.128-60.265 58.418-64.63 62.447-70.337 64.462-3.693 1.175-6.547 1.175-9.904 0-2.518-1.007-28.873-25.348-58.25-54.054l-53.55-52.375-15.444 15.108c-8.561 8.226-32.399 31.727-53.214 52.207s-39.785 38.106-42.303 38.946c-10.576 4.029-12.758 2.35-69.666-53.214-29.881-28.873-54.893-52.375-55.732-52.039-0.839 0.168-23.502 22.159-50.361 48.682l-48.85 48.010v848.073h671.475v-423.533zM185.495 812.443c-5.54-2.35-9.401-7.89-10.408-14.94-0.671-5.54-0.168-7.386 4.197-12.254l5.036-5.708 186.167-0.504c181.13-0.336 186.167-0.336 191.203 2.854 11.583 7.050 10.576 24.509-1.679 29.545-5.036 2.182-31.895 2.518-188.517 2.35-100.386 0-184.152-0.671-185.999-1.343zM183.145 700.81c-13.094-7.218-10.072-27.195 4.7-31.224 4.532-1.175 63.454-1.679 188.517-1.343 200.268 0.504 186.67-0.168 192.042 11.079 3.357 7.218 1.847 14.269-4.7 19.641l-5.036 4.197h-185.663c-151.082-0.168-186.502-0.504-189.86-2.35zM185.495 592.535c-5.54-2.35-9.401-7.89-10.408-14.94-0.671-5.54-0.168-7.386 4.197-12.254l5.036-5.708 185.663-0.504c206.647-0.504 193.385-1.175 198.421 10.911 3.357 7.89 0.671 16.283-6.715 20.816-5.036 3.022-10.576 3.19-189.020 3.022-101.057 0-185.327-0.671-187.174-1.343zM188.517 483.756c-2.014-0.336-5.54-2.518-7.89-4.7-7.89-7.218-7.722-17.962 0.168-25.348l4.365-4.029h374.851l4.365 4.7c6.043 6.211 7.218 12.254 4.029 19.137-5.372 11.415 8.561 10.576-193.217 10.744-100.721 0.168-184.656 0-186.67-0.504zM180.291 368.43c-6.547-6.547-7.554-14.269-3.022-20.984 6.211-8.897 0-8.561 195.735-8.561 169.715 0 182.138 0.168 187.677 3.022 3.861 1.847 6.547 4.868 8.058 9.065 2.182 5.54 2.014 6.883-0.671 12.59-1.847 3.525-5.036 7.218-7.386 8.393-3.19 1.679-45.157 2.182-189.356 2.182h-185.327l-5.708-5.708zM190.531 263.848c-6.883-1.511-10.911-4.532-13.43-10.072-3.357-7.050-2.182-13.094 3.861-19.305l4.365-4.7h237.031l4.365 4.7c6.043 6.211 7.218 12.254 4.029 19.137-5.372 11.079 1.343 10.576-123.551 10.911-62.279 0-114.822-0.168-116.669-0.671z" />
<glyph unicode="&#xe910;" glyph-name="document-list" d="M608 864v-192.061c0-35.565 28.739-63.939 64.189-63.939h159.811v-544.082c0-35.408-28.617-63.918-63.918-63.918h-480.165c-35.408 0-63.918 28.759-63.918 64.235v735.531c0 35.488 28.776 64.235 64.273 64.235h319.727zM640 864v-191.906c0-17.725 14.431-32.094 31.705-32.094h160.295l-192 224zM480 512v-32h256v32h-256zM320 544v-96h96v96h-96zM352 512v-32h32v32h-32zM320 384v-96h96v96h-96zM352 352v-32h32v32h-32zM480 352v-32h256v32h-256zM320 224v-96h96v96h-96zM352 192v-32h32v32h-32zM480 192v-32h256v32h-256z" />
<glyph unicode="&#xe911;" glyph-name="music" d="M960 960h64v-736c0-88.366-100.29-160-224-160s-224 71.634-224 160c0 88.368 100.29 160 224 160 62.684 0 119.342-18.4 160-48.040v368.040l-512-113.778v-494.222c0-88.366-100.288-160-224-160s-224 71.634-224 160c0 88.368 100.288 160 224 160 62.684 0 119.342-18.4 160-48.040v624.040l576 128z" />
<glyph unicode="&#xe912;" glyph-name="play" d="M981.188 799.892c-143.632 20.65-302.332 32.108-469.186 32.108-166.86 0-325.556-11.458-469.194-32.108-27.53-107.726-42.808-226.75-42.808-351.892 0-125.14 15.278-244.166 42.808-351.89 143.638-20.652 302.336-32.11 469.194-32.11 166.854 0 325.552 11.458 469.186 32.11 27.532 107.724 42.812 226.75 42.812 351.89 0 125.142-15.28 244.166-42.812 351.892zM384.002 256v384l320-192-320-192z" />
<glyph unicode="&#xe913;" glyph-name="document-list1" d="M624 864h16l192-224v-576.295c0-34.963-28.617-63.705-63.918-63.705h-480.165c-35.408 0-63.918 28.759-63.918 64.235v735.531c0 35.488 28.693 64.235 64.088 64.235h335.912zM608 832h-320.142c-17.595 0-31.858-14.568-31.858-31.855v-736.291c0-17.593 14.551-31.855 31.999-31.855h480.003c17.672 0 31.999 14.238 31.999 31.789v544.211h-128.067c-35.309 0-63.933 28.37-63.933 64.189v159.811zM640 816v-143.719c0-17.828 14.421-32.281 31.896-32.281h118.503l-150.398 176zM480 512v-32h256v32h-256zM320 544h96v-96h-96v96zM352 512v-32h32v32h-32zM320 384h96v-96h-96v96zM352 352v-32h32v32h-32zM480 352v-32h256v32h-256zM320 224h96v-96h-96v96zM352 192v-32h32v32h-32zM480 192v-32h256v32h-256z" />
<glyph unicode="&#xe914;" glyph-name="shopping-cart" d="M885.589 710.614c-8.149 9.344-19.883 14.72-32.256 14.72h-589.611l-8.32 49.664c-3.413 20.565-21.205 35.669-42.069 35.669h-96c-23.595 0-42.667-19.072-42.667-42.667s19.072-42.667 42.667-42.667h59.861l79.36-476.331c0.341-1.92 1.323-3.499 1.92-5.291 0.683-2.261 1.237-4.395 2.304-6.443 1.365-2.816 3.2-5.205 5.12-7.637 1.323-1.664 2.517-3.328 4.053-4.779 2.475-2.304 5.333-3.925 8.235-5.547 1.621-0.896 3.029-2.091 4.779-2.773 4.949-2.005 10.155-3.2 15.659-3.2 0.043 0 469.376 0 469.376 0 23.595 0 42.667 19.072 42.667 42.667s-19.072 42.667-42.667 42.667h-433.195l-7.083 42.667h482.944c21.248 0 39.253 15.616 42.24 36.608l42.667 298.667c1.749 12.288-1.92 24.704-9.984 34.005zM804.139 640l-12.16-85.333h-151.979v85.333h164.139zM597.333 640v-85.333h-128v85.333h128zM597.333 512v-85.333h-128v85.333h128zM426.667 640v-85.333h-128c-2.261 0-4.309-0.64-6.315-1.28l-14.421 86.613h148.736zM299.264 512h127.403v-85.333h-113.195l-14.208 85.333zM640 426.667v85.333h145.835l-12.16-85.333h-133.675zM426.667 106.667c0-35.346-28.654-64-64-64s-64 28.654-64 64c0 35.346 28.654 64 64 64s64-28.654 64-64zM810.667 106.667c0-35.346-28.654-64-64-64s-64 28.654-64 64c0 35.346 28.654 64 64 64s64-28.654 64-64z" />
<glyph unicode="&#xe915;" glyph-name="home" horiz-adv-x="951" d="M804.571 384v-274.286c0-20-16.571-36.571-36.571-36.571h-219.429v219.429h-146.286v-219.429h-219.429c-20 0-36.571 16.571-36.571 36.571v274.286c0 1.143 0.571 2.286 0.571 3.429l328.571 270.857 328.571-270.857c0.571-1.143 0.571-2.286 0.571-3.429zM932 423.428l-35.429-42.286c-2.857-3.429-7.429-5.714-12-6.286h-1.714c-4.571 0-8.571 1.143-12 4l-395.429 329.714-395.429-329.714c-4-2.857-8.571-4.571-13.714-4-4.571 0.571-9.143 2.857-12 6.286l-35.429 42.286c-6.286 7.429-5.143 19.429 2.286 25.714l410.857 342.286c24 20 62.857 20 86.857 0l139.429-116.571v111.429c0 10.286 8 18.286 18.286 18.286h109.714c10.286 0 18.286-8 18.286-18.286v-233.143l125.143-104c7.429-6.286 8.571-18.286 2.286-25.714z" />
<glyph unicode="&#xe916;" glyph-name="envelope" d="M1024 545.143v-453.714c0-50.286-41.143-91.429-91.429-91.429h-841.143c-50.286 0-91.429 41.143-91.429 91.429v453.714c17.143-18.857 36.571-35.429 57.714-49.714 94.857-64.571 190.857-129.143 284-197.143 48-35.429 107.429-78.857 169.714-78.857h1.143c62.286 0 121.714 43.429 169.714 78.857 93.143 67.429 189.143 132.571 284.571 197.143 20.571 14.286 40 30.857 57.143 49.714zM1024 713.143c0-64-47.429-121.714-97.714-156.571-89.143-61.714-178.857-123.429-267.429-185.714-37.143-25.714-100-78.286-146.286-78.286h-1.143c-46.286 0-109.143 52.571-146.286 78.286-88.571 62.286-178.286 124-266.857 185.714-40.571 27.429-98.286 92-98.286 144 0 56 30.286 104 91.429 104h841.143c49.714 0 91.429-41.143 91.429-91.429z" />
<glyph unicode="&#xe917;" glyph-name="narrow" horiz-adv-x="1035" d="M48.682 954.125c-12.31-3.637-34.693-24.061-40.568-37.491-7.834-17.067-6.995-44.205 1.679-61.832 5.316-10.632 59.593-66.308 235.576-242.291 249.565-249.285 240.052-240.892 272.227-240.892s22.662-8.393 272.227 240.892c175.983 175.983 230.26 231.659 235.576 242.291 8.673 17.626 9.513 44.765 1.679 61.832-6.435 14.269-28.538 33.854-41.967 37.77-16.507 4.477-39.449 3.357-53.438-3.078-9.792-4.197-59.034-52.039-213.193-206.199l-200.883-200.603-200.883 200.603c-154.16 154.16-203.401 202.002-213.193 206.199-13.43 6.155-38.89 7.554-54.837 2.798zM57.915 523.261c-22.383-5.316-40.848-20.144-49.801-40.289-7.274-15.668-6.995-43.646 0.56-60.153 8.114-18.186 459.961-470.033 478.146-478.146 17.067-7.834 44.485-7.834 61.552 0 18.466 8.114 470.033 459.961 478.146 478.146 7.554 16.507 7.834 44.485 0.56 60.153-15.948 35.252-61.552 52.039-95.405 34.973-8.953-4.197-71.344-64.63-213.473-206.479l-200.603-200.603-200.883 200.603c-130.658 130.378-204.52 202.282-211.795 205.919-13.989 6.715-33.014 9.233-47.003 5.875z" />
<glyph unicode="&#xe918;" glyph-name="icon_attention" horiz-adv-x="277" d="M101.574 954.013c-23.948-7.019-39.226-16.31-59.252-36.335-18.994-18.994-26.839-31.174-35.097-55.742-7.226-21.058-6.4-36.129 16.31-310.71 11.974-144.723 22.71-271.897 23.948-282.632 5.368-47.484 29.316-88.361 61.523-104.671 10.116-5.161 14.039-5.987 29.316-5.987s19.2 0.826 29.316 5.987c32.206 16.31 56.155 57.187 61.523 104.671 1.239 10.735 11.974 137.91 23.948 282.632 15.277 184.361 21.471 268.8 20.852 281.806-1.858 34.477-16.103 63.587-43.768 89.394-16.723 15.69-37.161 26.839-58.013 32.206-17.548 4.542-53.677 4.129-70.606-0.619zM169.91 921.187c35.923-13.006 64.619-49.961 71.639-92.49 1.858-12.387 1.652-24.774-2.065-73.29-8.671-117.058-10.323-139.974-13.419-181.471-8.671-118.090-17.548-239.69-19.406-267.355-3.097-45.626-10.323-69.574-28.49-94.555-21.471-29.11-58.219-29.11-79.69 0-17.755 24.361-25.394 49.342-28.284 92.49-1.858 27.045-4.335 61.11-14.452 199.226-23.329 314.013-22.916 310.090-20.439 325.161 7.432 45.832 39.432 83.613 80.31 95.381 13.006 3.716 39.639 2.271 54.297-3.097zM118.297 120.774c-57.187-12.387-89.806-78.658-64.206-130.065 17.342-34.271 46.452-52.645 84.026-52.645 31.174 0 56.568 12.387 73.703 35.716 14.039 18.994 18.168 31.794 18.168 57.187 0.206 20.852 0 22.297-7.432 37.781-13.213 27.665-36.129 46.039-65.032 52.026-16.929 3.716-22.503 3.716-39.226 0zM158.968 86.916c41.29-15.69 53.058-68.748 22.090-99.716-11.974-11.974-24.774-17.135-42.735-17.135s-29.729 4.748-42.323 16.929c-26.219 25.6-22.916 71.639 7.019 92.284 17.135 11.974 37.368 14.658 55.948 7.639z" />
<glyph unicode="&#xe919;" glyph-name="garbage" horiz-adv-x="769" d="M338.338 958.955c-27.481-4.702-49.946-21.734-61.858-47.125-5.956-12.434-7.419-19.435-7.314-34.9 0-12.539 0.313-14.838 4.389-30.72 2.508-9.404 4.389-17.136 4.18-17.345-0.209-0.104-49.633-12.539-110.028-27.585-60.291-15.047-112.431-28.526-115.775-29.884-18.599-7.523-34.9-22.988-43.572-41.378-5.224-11.285-7.523-21.838-7.523-35.422 0-11.494 0.418-13.375 7.941-43.781 4.389-17.554 8.777-33.437 9.718-35.422 2.403-4.911 8.046-10.449 13.27-12.852 9.509-4.284-7.837-8.359 368.327 85.891 254.851 63.843 351.922 88.503 355.056 90.384 8.15 4.702 12.852 13.27 12.852 23.092 0 3.971-2.717 16.509-7.837 36.885-6.374 25.287-8.568 32.496-12.434 40.229-8.673 17.345-20.689 29.362-37.721 37.616-12.957 6.374-21.316 8.255-36.571 8.255h-12.539l-110.759-27.899c-60.918-15.256-110.864-27.585-111.073-27.376-0.209 0.104-2.403 8.255-4.911 17.868-6.060 23.719-9.404 31.033-20.689 44.513-16.823 20.062-48.379 31.451-75.128 26.958zM363.938 901.486c9.718-5.016 12.121-9.195 17.45-30.511l3.866-15.256-25.391-6.374c-14.002-3.553-26.122-6.374-26.958-6.374-1.672 0-8.986 28.108-8.986 34.586 0 10.449 8.568 22.256 18.39 25.391 6.687 2.090 15.882 1.463 21.629-1.463zM682.632 868.467c6.060-2.090 13.375-8.464 15.673-13.688 1.776-3.866 9.3-31.765 8.777-32.287-0.313-0.313-638.851-159.974-641.672-160.496-1.881-0.313-2.508 1.463-5.956 15.36-4.389 17.136-4.389 21.42-0.731 29.466 2.090 4.598 8.568 11.076 12.748 12.957 4.598 2.090 597.891 150.152 602.070 150.256 2.299 0.104 6.374-0.627 9.091-1.567zM128.522 584.986c-7.523-2.299-15.256-9.195-18.599-16.718-1.672-3.448-1.776-23.615-1.776-255.582 0-238.132 0.104-252.343 1.881-261.642 8.568-44.304 35.527-80.666 74.71-100.31 10.24-5.12 23.406-9.718 35.736-12.33 8.359-1.776 19.017-1.881 191.216-1.881 198.322 0 188.082-0.313 207.935 5.956 40.124 12.643 72.202 42.841 87.876 82.547 3.239 8.359 7.001 24.346 8.15 35.527 0.836 6.792 1.149 90.384 1.149 255.060 0 268.539 0.418 250.462-6.165 259.448-1.776 2.299-5.642 5.538-8.673 7.314-4.807 2.612-6.583 3.030-13.375 3.030-5.956 0-8.882-0.627-12.016-2.299-5.538-2.926-10.344-8.15-12.957-13.897-2.090-4.702-2.194-5.538-2.194-250.984 0-168.020-0.313-248.79-1.149-254.433-4.493-33.541-28.317-60.5-61.649-70.008-6.374-1.776-15.464-1.881-186.41-1.881-201.874 0-183.902-0.731-201.77 7.837-25.287 12.121-42.423 35.944-46.289 64.052-0.836 5.642-1.149 84.741-1.149 254.433v246.282l-2.508 5.329c-5.433 11.598-20.271 18.704-31.974 15.151zM262.792 486.243c-6.269-2.926-12.121-9.091-14.524-15.36-1.567-4.284-1.672-20.062-1.463-204.696l0.313-200.098 2.821-4.911c11.703-19.749 39.706-18.495 49.319 2.299l2.194 4.702v399.151l-2.926 5.956c-1.672 3.344-4.702 7.419-6.792 9.195-7.941 6.478-19.749 8.046-28.944 3.762zM403.017 487.288c-4.911-1.776-10.344-5.956-13.27-10.136-5.433-7.523-5.224 1.672-5.224-209.293 0-130.508 0.418-197.799 1.045-200.411 1.776-6.478 7.314-13.479 13.166-16.718 14.002-7.837 30.824-2.821 38.034 11.285l2.612 5.12 0.313 198.531c0.209 218.279 0.627 204.8-6.060 212.95-5.12 6.165-11.494 9.3-19.644 9.822-4.389 0.209-8.464-0.209-10.971-1.149zM541.78 487.393c-8.986-3.448-16.3-11.389-17.972-19.435-0.522-2.090-0.836-92.891-0.836-201.77v-198.008l2.508-5.016c4.493-9.091 15.673-16.405 25.182-16.405 9.822 0 20.376 6.896 24.66 16.196l2.508 5.224v198.949c0 152.66-0.313 199.889-1.254 203.233-0.836 2.821-3.239 6.269-7.105 10.031-6.374 6.374-11.076 8.359-19.435 8.255-2.821 0-6.583-0.627-8.255-1.254z" />
<glyph unicode="&#xe91b;" glyph-name="connection" horiz-adv-x="1280" d="M640 384c105.87 0 201.87-43.066 271.402-112.598l-90.468-90.468c-46.354 46.356-110.356 75.066-180.934 75.066s-134.578-28.71-180.934-75.066l-90.468 90.468c69.532 69.532 165.532 112.598 271.402 112.598zM187.452 452.548c120.88 120.88 281.598 187.452 452.548 187.452s331.668-66.572 452.55-187.452l-90.51-90.508c-96.706 96.704-225.28 149.96-362.040 149.96-136.762 0-265.334-53.256-362.038-149.962l-90.51 90.51zM988.784 825.562c106.702-45.132 202.516-109.728 284.782-191.996v0l-90.508-90.508c-145.056 145.056-337.92 224.942-543.058 224.942-205.14 0-398-79.886-543.058-224.942l-90.51 90.51c82.268 82.266 178.082 146.862 284.784 191.994 110.504 46.738 227.852 70.438 348.784 70.438s238.278-23.7 348.784-70.438zM576 64c0 35.346 28.654 64 64 64s64-28.654 64-64c0-35.346-28.654-64-64-64s-64 28.654-64 64z" />
<glyph unicode="&#xe930;" glyph-name="folder-open" d="M832 0l192 512h-832l-192-512zM128 576l-128-576v832h288l128-128h416v-128z" />
<glyph unicode="&#xe934;" glyph-name="folder-upload" d="M576 704l-128 128h-448v-832h1024v704h-448zM512 480l224-224h-160v-256h-128v256h-160l224 224z" />
<glyph unicode="&#xe942;" glyph-name="phone" d="M704 320c-64-64-64-128-128-128s-128 64-192 128-128 128-128 192 64 64 128 128-128 256-192 256-192-192-192-192c0-128 131.5-387.5 256-512s384-256 512-256c0 0 192 128 192 192s-192 256-256 192z" />
<glyph unicode="&#xe94e;" glyph-name="clock" d="M658.744 210.744l-210.744 210.746v282.51h128v-229.49l173.256-173.254zM512 960c-282.77 0-512-229.23-512-512s229.23-512 512-512 512 229.23 512 512-229.23 512-512 512zM512 64c-212.078 0-384 171.922-384 384s171.922 384 384 384c212.078 0 384-171.922 384-384s-171.922-384-384-384z" />
<glyph unicode="&#xe955;" glyph-name="keyboard" horiz-adv-x="1152" d="M1088 832h-1024c-35.2 0-64-28.8-64-64v-640c0-35.2 28.8-64 64-64h1024c35.2 0 64 28.8 64 64v640c0 35.2-28.8 64-64 64zM640 704h128v-128h-128v128zM832 512v-128h-128v128h128zM448 704h128v-128h-128v128zM640 512v-128h-128v128h128zM256 704h128v-128h-128v128zM448 512v-128h-128v128h128zM128 704h64v-128h-64v128zM128 512h128v-128h-128v128zM192 192h-64v128h64v-128zM768 192h-512v128h512v-128zM1024 192h-192v128h192v-128zM1024 384h-128v128h128v-128zM1024 576h-192v128h192v-128z" />
<glyph unicode="&#xe956;" glyph-name="display" d="M0 896v-640h1024v640h-1024zM960 320h-896v512h896v-512zM672 192h-320l-32-128-64-64h512l-64 64z" />
<glyph unicode="&#xe958;" glyph-name="mobile" d="M736 960h-448c-52.8 0-96-43.2-96-96v-832c0-52.8 43.2-96 96-96h448c52.8 0 96 43.2 96 96v832c0 52.8-43.2 96-96 96zM384 912h256v-32h-256v32zM512 0c-35.346 0-64 28.654-64 64s28.654 64 64 64 64-28.654 64-64-28.654-64-64-64zM768 192h-512v640h512v-640z" />
<glyph unicode="&#xe95b;" glyph-name="tv" d="M981.188 671.892c-88.808 12.768-183.382 22.016-282.076 27.22l164.888 164.888-64 64-224.558-224.556c-21.006 0.368-42.156 0.556-63.442 0.556v0l-256 256-64-64 194.196-194.196c-120.922-4.242-236.338-14.524-343.386-29.912-27.532-107.726-42.81-226.752-42.81-351.892s15.278-244.166 42.804-351.89c143.642-20.652 302.34-32.11 469.196-32.11s325.55 11.458 469.188 32.11c27.534 107.724 42.812 226.75 42.812 351.89s-15.278 244.166-42.812 351.892zM863.892 85.406c-107.73-13.766-226.75-21.406-351.892-21.406s-244.166 7.64-351.892 21.406c-20.648 71.816-32.108 151.166-32.108 234.594 0 83.43 11.458 162.78 32.108 234.596 107.726 13.766 226.75 21.404 351.892 21.404 125.136 0 244.162-7.638 351.886-21.404 20.656-71.816 32.114-151.166 32.114-234.596 0-83.428-11.458-162.778-32.108-234.594z" />
<glyph unicode="&#xe960;" glyph-name="download" d="M512 384l256 256h-192v256h-128v-256h-192zM744.726 488.728l-71.74-71.742 260.080-96.986-421.066-157.018-421.066 157.018 260.080 96.986-71.742 71.742-279.272-104.728v-256l512-192 512 192v256z" />
<glyph unicode="&#xe961;" glyph-name="upload" d="M448 384h128v256h192l-256 256-256-256h192zM640 528v-98.712l293.066-109.288-421.066-157.018-421.066 157.018 293.066 109.288v98.712l-384-144v-256l512-192 512 192v256z" />
<glyph unicode="&#xe965;" glyph-name="undo" d="M512 896c-141.384 0-269.376-57.32-362.032-149.978l-149.968 149.978v-384h384l-143.532 143.522c69.496 69.492 165.492 112.478 271.532 112.478 212.068 0 384-171.924 384-384 0-114.696-50.292-217.636-130.018-288l84.666-96c106.302 93.816 173.352 231.076 173.352 384 0 282.77-229.23 512-512 512z" />
<glyph unicode="&#xe966;" glyph-name="redo" d="M0 384c0-152.924 67.048-290.184 173.35-384l84.666 96c-79.726 70.364-130.016 173.304-130.016 288 0 212.076 171.93 384 384 384 106.042 0 202.038-42.986 271.53-112.478l-143.53-143.522h384v384l-149.97-149.978c-92.654 92.658-220.644 149.978-362.030 149.978-282.77 0-512-229.23-512-512z" />
<glyph unicode="&#xe970;" glyph-name="bubbles4" horiz-adv-x="1152" d="M480 832c-50.666 0-99.582-7.95-145.386-23.628-42.924-14.694-81.114-35.436-113.502-61.646-60.044-48.59-93.112-110.802-93.112-175.174 0-35.99 10.066-70.948 29.92-103.898 20.686-34.34 51.898-65.794 90.26-90.958 30.44-19.968 50.936-51.952 56.362-87.95 0.902-5.99 1.63-12.006 2.18-18.032 2.722 2.52 5.424 5.114 8.114 7.794 24.138 24.040 56.688 37.312 90.322 37.312 5.348 0 10.718-0.336 16.094-1.018 19.36-2.452 39.124-3.696 58.748-3.696 50.666 0 99.58 7.948 145.384 23.628 42.926 14.692 81.116 35.434 113.504 61.644 60.046 48.59 93.112 110.802 93.112 175.174s-33.066 126.582-93.112 175.174c-32.388 26.212-70.578 46.952-113.504 61.646-45.804 15.678-94.718 23.628-145.384 23.628zM480 960v0c265.096 0 480-173.914 480-388.448s-214.904-388.448-480-388.448c-25.458 0-50.446 1.62-74.834 4.71-103.106-102.694-222.172-121.108-341.166-123.814v25.134c64.252 31.354 116 88.466 116 153.734 0 9.106-0.712 18.048-2.030 26.794-108.558 71.214-177.97 179.988-177.97 301.89 0 214.534 214.904 388.448 480 388.448zM996 89.314c0-55.942 36.314-104.898 92-131.772v-21.542c-103.126 2.318-197.786 18.102-287.142 106.126-21.14-2.65-42.794-4.040-64.858-4.040-95.47 0-183.408 25.758-253.614 69.040 144.674 0.506 281.26 46.854 384.834 130.672 52.208 42.252 93.394 91.826 122.414 147.348 30.766 58.866 46.366 121.582 46.366 186.406 0 10.448-0.45 20.836-1.258 31.168 72.57-59.934 117.258-141.622 117.258-231.676 0-104.488-60.158-197.722-154.24-258.764-1.142-7.496-1.76-15.16-1.76-22.966z" />
<glyph unicode="&#xe985;" glyph-name="binoculars" d="M64 960h384v-64h-384zM576 960h384v-64h-384zM952 640h-56v256h-256v-256h-256v256h-256v-256h-56c-39.6 0-72-32.4-72-72v-560c0-39.6 32.4-72 72-72h304c39.6 0 72 32.4 72 72v376h128v-376c0-39.6 32.4-72 72-72h304c39.6 0 72 32.4 72 72v560c0 39.6-32.4 72-72 72zM348 0h-248c-19.8 0-36 14.4-36 32s16.2 32 36 32h248c19.8 0 36-14.4 36-32s-16.2-32-36-32zM544 448h-64c-17.6 0-32 14.4-32 32s14.4 32 32 32h64c17.6 0 32-14.4 32-32s-14.4-32-32-32zM924 0h-248c-19.8 0-36 14.4-36 32s16.2 32 36 32h248c19.8 0 36-14.4 36-32s-16.2-32-36-32z" />
<glyph unicode="&#xe986;" glyph-name="search" d="M992.262 88.604l-242.552 206.294c-25.074 22.566-51.89 32.926-73.552 31.926 57.256 67.068 91.842 154.078 91.842 249.176 0 212.078-171.922 384-384 384-212.076 0-384-171.922-384-384s171.922-384 384-384c95.098 0 182.108 34.586 249.176 91.844-1-21.662 9.36-48.478 31.926-73.552l206.294-242.552c35.322-39.246 93.022-42.554 128.22-7.356s31.892 92.898-7.354 128.22zM384 320c-141.384 0-256 114.616-256 256s114.616 256 256 256 256-114.616 256-256-114.614-256-256-256z" />
<glyph unicode="&#xe987;" glyph-name="zoom-in" d="M992.262 88.604l-242.552 206.294c-25.074 22.566-51.89 32.926-73.552 31.926 57.256 67.068 91.842 154.078 91.842 249.176 0 212.078-171.922 384-384 384-212.076 0-384-171.922-384-384s171.922-384 384-384c95.098 0 182.108 34.586 249.176 91.844-1-21.662 9.36-48.478 31.926-73.552l206.294-242.552c35.322-39.246 93.022-42.554 128.22-7.356s31.892 92.898-7.354 128.22zM384 320c-141.384 0-256 114.616-256 256s114.616 256 256 256 256-114.616 256-256-114.614-256-256-256zM448 768h-128v-128h-128v-128h128v-128h128v128h128v128h-128z" />
<glyph unicode="&#xe988;" glyph-name="zoom-out" d="M992.262 88.604l-242.552 206.294c-25.074 22.566-51.89 32.926-73.552 31.926 57.256 67.068 91.842 154.078 91.842 249.176 0 212.078-171.922 384-384 384-212.076 0-384-171.922-384-384s171.922-384 384-384c95.098 0 182.108 34.586 249.176 91.844-1-21.662 9.36-48.478 31.926-73.552l206.294-242.552c35.322-39.246 93.022-42.554 128.22-7.356s31.892 92.898-7.354 128.22zM384 320c-141.384 0-256 114.616-256 256s114.616 256 256 256 256-114.616 256-256-114.614-256-256-256zM192 640h384v-128h-384z" />
<glyph unicode="&#xe98e;" glyph-name="key2" d="M1002.132 645.758l-101.106 101.104c-24.792 24.794-65.37 65.368-90.162 90.164l-101.106 101.104c-24.792 24.794-68.954 29.166-98.13 9.716l-276.438-184.292c-29.176-19.452-40.218-61.028-24.536-92.39l70.486-140.974c2.154-4.306 4.646-8.896 7.39-13.66l-356.53-356.53-32-224h192v64h128v128h128v128h128v71.186c6.396-3.812 12.534-7.216 18.192-10.044l140.97-70.488c31.366-15.682 72.94-4.638 92.39 24.538l184.294 276.44c19.454 29.172 15.078 73.33-9.714 98.126zM150.628 105.374l-45.254 45.254 311.572 311.57 45.254-45.254-311.572-311.57zM917.020 536.236l-45.256-45.256c-12.446-12.444-32.808-12.444-45.254 0l-271.53 271.53c-12.446 12.444-12.446 32.81 0 45.254l45.256 45.256c12.446 12.444 32.808 12.444 45.254 0l271.53-271.53c12.446-12.444 12.446-32.81 0-45.254z" />
<glyph unicode="&#xe98f;" glyph-name="lock" d="M592 512h-16v192c0 105.87-86.13 192-192 192h-128c-105.87 0-192-86.13-192-192v-192h-16c-26.4 0-48-21.6-48-48v-480c0-26.4 21.6-48 48-48h544c26.4 0 48 21.6 48 48v480c0 26.4-21.6 48-48 48zM192 704c0 35.29 28.71 64 64 64h128c35.29 0 64-28.71 64-64v-192h-256v192z" />
<glyph unicode="&#xe990;" glyph-name="unlocked" d="M768 896c105.87 0 192-86.13 192-192v-192h-128v192c0 35.29-28.71 64-64 64h-128c-35.29 0-64-28.71-64-64v-192h16c26.4 0 48-21.6 48-48v-480c0-26.4-21.6-48-48-48h-544c-26.4 0-48 21.6-48 48v480c0 26.4 21.6 48 48 48h400v192c0 105.87 86.13 192 192 192h128z" />
<glyph unicode="&#xe992;" glyph-name="equalizer" d="M448 832v16c0 26.4-21.6 48-48 48h-160c-26.4 0-48-21.6-48-48v-16h-192v-128h192v-16c0-26.4 21.6-48 48-48h160c26.4 0 48 21.6 48 48v16h576v128h-576zM256 704v128h128v-128h-128zM832 528c0 26.4-21.6 48-48 48h-160c-26.4 0-48-21.6-48-48v-16h-576v-128h576v-16c0-26.4 21.6-48 48-48h160c26.4 0 48 21.6 48 48v16h192v128h-192v16zM640 384v128h128v-128h-128zM448 208c0 26.4-21.6 48-48 48h-160c-26.4 0-48-21.6-48-48v-16h-192v-128h192v-16c0-26.4 21.6-48 48-48h160c26.4 0 48 21.6 48 48v16h576v128h-576v16zM256 64v128h128v-128h-128z" />
<glyph unicode="&#xe993;" glyph-name="equalizer2" d="M896 512h16c26.4 0 48 21.6 48 48v160c0 26.4-21.6 48-48 48h-16v192h-128v-192h-16c-26.4 0-48-21.6-48-48v-160c0-26.4 21.6-48 48-48h16v-576h128v576zM768 704h128v-128h-128v128zM592 128c26.4 0 48 21.6 48 48v160c0 26.4-21.6 48-48 48h-16v576h-128v-576h-16c-26.4 0-48-21.6-48-48v-160c0-26.4 21.6-48 48-48h16v-192h128v192h16zM448 320h128v-128h-128v128zM272 512c26.4 0 48 21.6 48 48v160c0 26.4-21.6 48-48 48h-16v192h-128v-192h-16c-26.4 0-48-21.6-48-48v-160c0-26.4 21.6-48 48-48h16v-576h128v576h16zM128 704h128v-128h-128v128z" />
<glyph unicode="&#xe99b;" glyph-name="stats-dots" d="M128 64h896v-128h-1024v1024h128zM288 128c-53.020 0-96 42.98-96 96s42.98 96 96 96c2.828 0 5.622-0.148 8.388-0.386l103.192 171.986c-9.84 15.070-15.58 33.062-15.58 52.402 0 53.020 42.98 96 96 96s96-42.98 96-96c0-19.342-5.74-37.332-15.58-52.402l103.192-171.986c2.766 0.238 5.56 0.386 8.388 0.386 2.136 0 4.248-0.094 6.35-0.23l170.356 298.122c-10.536 15.408-16.706 34.036-16.706 54.11 0 53.020 42.98 96 96 96s96-42.98 96-96c0-53.020-42.98-96-96-96-2.14 0-4.248 0.094-6.35 0.232l-170.356-298.124c10.536-15.406 16.706-34.036 16.706-54.11 0-53.020-42.98-96-96-96s-96 42.98-96 96c0 19.34 5.74 37.332 15.578 52.402l-103.19 171.984c-2.766-0.238-5.56-0.386-8.388-0.386s-5.622 0.146-8.388 0.386l-103.192-171.986c9.84-15.068 15.58-33.060 15.58-52.4 0-53.020-42.98-96-96-96z" />
<glyph unicode="&#xe9a3;" glyph-name="spoon-knife" d="M224 960c-106.040 0-192-100.288-192-224 0-105.924 63.022-194.666 147.706-217.998l-31.788-518.124c-2.154-35.132 24.882-63.878 60.082-63.878h32c35.2 0 62.236 28.746 60.082 63.878l-31.788 518.124c84.684 23.332 147.706 112.074 147.706 217.998 0 123.712-85.96 224-192 224zM869.334 960l-53.334-320h-40l-26.666 320h-26.668l-26.666-320h-40l-53.334 320h-26.666v-416c0-17.672 14.326-32 32-32h83.338l-31.42-512.122c-2.154-35.132 24.882-63.878 60.082-63.878h32c35.2 0 62.236 28.746 60.082 63.878l-31.42 512.122h83.338c17.674 0 32 14.328 32 32v416h-26.666z" />
<glyph unicode="&#xe9a9;" glyph-name="fire" d="M321.008-64c-68.246 142.008-31.902 223.378 20.55 300.044 57.44 83.956 72.244 167.066 72.244 167.066s45.154-58.7 27.092-150.508c79.772 88.8 94.824 230.28 82.782 284.464 180.314-126.012 257.376-398.856 153.522-601.066 552.372 312.532 137.398 780.172 65.154 832.85 24.082-52.676 28.648-141.85-20-185.126-82.352 312.276-285.972 376.276-285.972 376.276 24.082-161.044-87.296-337.144-194.696-468.73-3.774 64.216-7.782 108.528-41.55 169.98-7.58-116.656-96.732-211.748-120.874-328.628-32.702-158.286 24.496-274.18 241.748-396.622z" />
<glyph unicode="&#xe9c2;" glyph-name="cloud-download" d="M891.004 599.94c-3.242 128.698-108.458 232.060-237.862 232.060-75.792 0-143.266-35.494-186.854-90.732-24.442 31.598-62.69 51.96-105.708 51.96-73.81 0-133.642-59.876-133.642-133.722 0-6.436 0.48-12.76 1.364-18.954-11.222 2.024-22.766 3.138-34.57 3.138-106.998 0.002-193.732-86.786-193.732-193.842 0-107.062 86.734-193.848 193.73-193.848h91.76l226.51-234.51 226.51 234.51 111.482 0.012c96.138 0.184 174.008 78.21 174.008 174.446 0 82.090-56.678 150.9-132.996 169.482zM512 128l-192 192h128v192h128v-192h128l-192-192z" />
<glyph unicode="&#xe9c3;" glyph-name="cloud-upload" d="M892.268 573.51c2.444 11.11 3.732 22.648 3.732 34.49 0 88.366-71.634 160-160 160-14.222 0-28.014-1.868-41.132-5.352-24.798 77.352-97.29 133.352-182.868 133.352-87.348 0-161.054-58.336-184.326-138.17-22.742 6.622-46.792 10.17-71.674 10.17-141.384 0-256-114.616-256-256 0-141.388 114.616-256 256-256h128v-192h256v192h224c88.366 0 160 71.632 160 160 0 78.72-56.854 144.162-131.732 157.51zM576 320v-192h-128v192h-160l224 224 224-224h-160z" />
<glyph unicode="&#xe9c4;" glyph-name="cloud-check" d="M892.268 445.51c2.442 11.108 3.732 22.646 3.732 34.49 0 88.366-71.634 160-160 160-14.224 0-28.014-1.868-41.134-5.352-24.796 77.352-97.288 133.352-182.866 133.352-87.348 0-161.054-58.336-184.326-138.17-22.742 6.62-46.792 10.17-71.674 10.17-141.384 0-256-114.616-256-256 0-141.382 114.616-256 256-256h608c88.366 0 160 71.632 160 160 0 78.718-56.854 144.16-131.732 157.51zM416 192l-160 160 64 64 96-96 224 224 64-64-288-288z" />
<glyph unicode="&#xe9d1;" glyph-name="list2" d="M384 896h640v-128h-640v128zM384 512h640v-128h-640v128zM384 128h640v-128h-640v128zM0 832c0 70.692 57.308 128 128 128s128-57.308 128-128c0-70.692-57.308-128-128-128s-128 57.308-128 128zM0 448c0 70.692 57.308 128 128 128s128-57.308 128-128c0-70.692-57.308-128-128-128s-128 57.308-128 128zM0 64c0 70.692 57.308 128 128 128s128-57.308 128-128c0-70.692-57.308-128-128-128s-128 57.308-128 128z" />
<glyph unicode="&#xe9d4;" glyph-name="sun" d="M512 128c35.346 0 64-28.654 64-64v-64c0-35.346-28.654-64-64-64s-64 28.654-64 64v64c0 35.346 28.654 64 64 64zM512 768c-35.346 0-64 28.654-64 64v64c0 35.346 28.654 64 64 64s64-28.654 64-64v-64c0-35.346-28.654-64-64-64zM960 512c35.346 0 64-28.654 64-64s-28.654-64-64-64h-64c-35.348 0-64 28.654-64 64s28.652 64 64 64h64zM192 448c0-35.346-28.654-64-64-64h-64c-35.346 0-64 28.654-64 64s28.654 64 64 64h64c35.346 0 64-28.654 64-64zM828.784 221.726l45.256-45.258c24.992-24.99 24.992-65.516 0-90.508-24.994-24.992-65.518-24.992-90.51 0l-45.256 45.256c-24.992 24.99-24.992 65.516 0 90.51 24.994 24.992 65.518 24.992 90.51 0zM195.216 674.274l-45.256 45.256c-24.994 24.994-24.994 65.516 0 90.51s65.516 24.994 90.51 0l45.256-45.256c24.994-24.994 24.994-65.516 0-90.51s-65.516-24.994-90.51 0zM828.784 674.274c-24.992-24.992-65.516-24.992-90.51 0-24.992 24.994-24.992 65.516 0 90.51l45.256 45.254c24.992 24.994 65.516 24.994 90.51 0 24.992-24.994 24.992-65.516 0-90.51l-45.256-45.254zM195.216 221.726c24.992 24.992 65.518 24.992 90.508 0 24.994-24.994 24.994-65.52 0-90.51l-45.254-45.256c-24.994-24.992-65.516-24.992-90.51 0s-24.994 65.518 0 90.508l45.256 45.258zM512 704c-141.384 0-256-114.616-256-256 0-141.382 114.616-256 256-256 141.382 0 256 114.618 256 256 0 141.384-114.616 256-256 256zM512 288c-88.366 0-160 71.634-160 160s71.634 160 160 160 160-71.634 160-160-71.634-160-160-160z" />
<glyph unicode="&#xe9d7;" glyph-name="star-empty" d="M1024 562.95l-353.78 51.408-158.22 320.582-158.216-320.582-353.784-51.408 256-249.538-60.432-352.352 316.432 166.358 316.432-166.358-60.434 352.352 256.002 249.538zM512 206.502l-223.462-117.48 42.676 248.83-180.786 176.222 249.84 36.304 111.732 226.396 111.736-226.396 249.836-36.304-180.788-176.222 42.678-248.83-223.462 117.48z" />
<glyph unicode="&#xe9d9;" glyph-name="star-full" d="M1024 562.95l-353.78 51.408-158.22 320.582-158.216-320.582-353.784-51.408 256-249.538-60.432-352.352 316.432 166.358 316.432-166.358-60.434 352.352 256.002 249.538z" />
<glyph unicode="&#xe9da;" glyph-name="heart" d="M755.188 896c-107.63 0-200.258-87.554-243.164-179-42.938 91.444-135.578 179-243.216 179-148.382 0-268.808-120.44-268.808-268.832 0-301.846 304.5-380.994 512.022-679.418 196.154 296.576 511.978 387.206 511.978 679.418 0 148.392-120.43 268.832-268.812 268.832z" />
<glyph unicode="&#xe9e1;" glyph-name="smile" d="M512-64c282.77 0 512 229.23 512 512s-229.23 512-512 512-512-229.23-512-512 229.23-512 512-512zM512 864c229.75 0 416-186.25 416-416s-186.25-416-416-416-416 186.25-416 416 186.25 416 416 416zM256 640c0 35.346 28.654 64 64 64s64-28.654 64-64c0-35.346-28.654-64-64-64s-64 28.654-64 64zM640 640c0 35.346 28.654 64 64 64s64-28.654 64-64c0-35.346-28.654-64-64-64s-64 28.654-64 64zM704.098 332.74l82.328-49.396c-55.962-93.070-157.916-155.344-274.426-155.344s-218.464 62.274-274.426 155.344l82.328 49.396c39.174-65.148 110.542-108.74 192.098-108.74s152.924 43.592 192.098 108.74z" />
<glyph unicode="&#xe9e2;" glyph-name="smile2" d="M512 960c-282.77 0-512-229.23-512-512s229.23-512 512-512 512 229.23 512 512-229.23 512-512 512zM704 704c35.346 0 64-28.654 64-64s-28.654-64-64-64-64 28.654-64 64 28.654 64 64 64zM320 704c35.346 0 64-28.654 64-64s-28.654-64-64-64-64 28.654-64 64 28.654 64 64 64zM512 128c-116.51 0-218.464 62.274-274.426 155.344l82.328 49.396c39.174-65.148 110.542-108.74 192.098-108.74s152.924 43.592 192.098 108.74l82.328-49.396c-55.962-93.070-157.916-155.344-274.426-155.344z" />
<glyph unicode="&#xea10;" glyph-name="checkmark" d="M864 832l-480-480-224 224-160-160 384-384 640 640z" />
<glyph unicode="&#xea1c;" glyph-name="play3" d="M192 832l640-384-640-384z" />
<glyph unicode="&#xea1d;" glyph-name="pause2" d="M128 832h320v-768h-320zM576 832h320v-768h-320z" />
<glyph unicode="&#xea1e;" glyph-name="stop2" d="M128 832h768v-768h-768z" />
<glyph unicode="&#xea1f;" glyph-name="backward2" d="M576 800v-320l320 320v-704l-320 320v-320l-352 352z" />
<glyph unicode="&#xea20;" glyph-name="forward3" d="M512 96v320l-320-320v704l320-320v320l352-352z" />
<glyph unicode="&#xea21;" glyph-name="first" d="M128 64v768h128v-352l320 320v-320l320 320v-704l-320 320v-320l-320 320v-352z" />
<glyph unicode="&#xea22;" glyph-name="last" d="M896 832v-768h-128v352l-320-320v320l-320-320v704l320-320v320l320-320v352z" />
<glyph unicode="&#xea23;" glyph-name="previous2" d="M256 64v768h128v-352l320 320v-704l-320 320v-352z" />
<glyph unicode="&#xea24;" glyph-name="next2" d="M768 832v-768h-128v352l-320-320v704l320-320v352z" />
<glyph unicode="&#xea25;" glyph-name="eject" d="M0 192h1024v-128h-1024zM512 832l512-512h-1024z" />
<glyph unicode="&#xea26;" glyph-name="volume-high" horiz-adv-x="1088" d="M890.040 37.96c-12.286 0-24.566 4.686-33.942 14.056-18.744 18.746-18.744 49.136 0 67.882 87.638 87.642 135.904 204.16 135.904 328.1 0 123.938-48.266 240.458-135.904 328.098-18.744 18.746-18.744 49.138 0 67.882s49.138 18.744 67.882 0c105.77-105.772 164.022-246.4 164.022-395.98s-58.252-290.208-164.022-395.98c-9.372-9.372-21.656-14.058-33.94-14.058zM719.53 128.47c-12.286 0-24.566 4.686-33.942 14.056-18.744 18.744-18.744 49.136 0 67.882 131.006 131.006 131.006 344.17 0 475.176-18.744 18.746-18.744 49.138 0 67.882 18.744 18.742 49.138 18.744 67.882 0 81.594-81.59 126.53-190.074 126.53-305.466 0-115.39-44.936-223.876-126.53-305.47-9.372-9.374-21.656-14.060-33.94-14.060v0zM549.020 218.98c-12.286 0-24.568 4.686-33.942 14.058-18.746 18.746-18.746 49.134 0 67.88 81.1 81.1 81.1 213.058 0 294.156-18.746 18.746-18.746 49.138 0 67.882s49.136 18.744 67.882 0c118.53-118.53 118.53-311.392 0-429.922-9.372-9.368-21.656-14.054-33.94-14.054zM416.006 0c-8.328 0-16.512 3.25-22.634 9.374l-246.626 246.626h-114.746c-17.672 0-32 14.326-32 32v320c0 17.672 14.328 32 32 32h114.746l246.626 246.628c9.154 9.154 22.916 11.89 34.874 6.936 11.958-4.952 19.754-16.622 19.754-29.564v-832c0-12.944-7.796-24.612-19.754-29.564-3.958-1.64-8.118-2.436-12.24-2.436z" />
<glyph unicode="&#xea27;" glyph-name="volume-medium" d="M719.53 128.47c-12.286 0-24.566 4.686-33.942 14.056-18.744 18.744-18.744 49.136 0 67.882 131.006 131.006 131.006 344.17 0 475.176-18.744 18.746-18.744 49.138 0 67.882 18.744 18.742 49.138 18.744 67.882 0 81.594-81.59 126.53-190.074 126.53-305.466 0-115.39-44.936-223.876-126.53-305.47-9.372-9.374-21.656-14.060-33.94-14.060v0zM549.020 218.98c-12.286 0-24.566 4.686-33.942 14.058-18.746 18.746-18.746 49.134 0 67.88 81.1 81.1 81.1 213.058 0 294.156-18.746 18.746-18.746 49.138 0 67.882s49.136 18.744 67.882 0c118.53-118.53 118.53-311.392 0-429.922-9.372-9.368-21.656-14.054-33.94-14.054zM416.006 0c-8.328 0-16.512 3.25-22.634 9.374l-246.626 246.626h-114.746c-17.672 0-32 14.326-32 32v320c0 17.672 14.328 32 32 32h114.746l246.626 246.628c9.154 9.154 22.916 11.89 34.874 6.936 11.958-4.952 19.754-16.622 19.754-29.564v-832c0-12.944-7.796-24.612-19.754-29.564-3.958-1.64-8.118-2.436-12.24-2.436z" />
<glyph unicode="&#xea28;" glyph-name="volume-low" d="M549.020 218.98c-12.286 0-24.566 4.686-33.942 14.058-18.746 18.746-18.746 49.134 0 67.88 81.1 81.1 81.1 213.058 0 294.156-18.746 18.746-18.746 49.138 0 67.882s49.136 18.744 67.882 0c118.53-118.53 118.53-311.392 0-429.922-9.372-9.368-21.656-14.054-33.94-14.054zM416.006 0c-8.328 0-16.512 3.25-22.634 9.374l-246.626 246.626h-114.746c-17.672 0-32 14.326-32 32v320c0 17.672 14.328 32 32 32h114.746l246.626 246.628c9.154 9.154 22.916 11.89 34.874 6.936 11.958-4.952 19.754-16.622 19.754-29.564v-832c0-12.944-7.796-24.612-19.754-29.564-3.958-1.64-8.118-2.436-12.24-2.436z" />
<glyph unicode="&#xea29;" glyph-name="volume-mute" d="M416.006 0c-8.328 0-16.512 3.25-22.634 9.374l-246.626 246.626h-114.746c-17.672 0-32 14.326-32 32v320c0 17.672 14.328 32 32 32h114.746l246.626 246.628c9.154 9.154 22.916 11.89 34.874 6.936 11.958-4.952 19.754-16.622 19.754-29.564v-832c0-12.944-7.796-24.612-19.754-29.564-3.958-1.64-8.118-2.436-12.24-2.436z" />
<glyph unicode="&#xea2a;" glyph-name="volume-mute2" d="M960 340.852v-84.852h-84.852l-107.148 107.148-107.148-107.148h-84.852v84.852l107.148 107.148-107.148 107.148v84.852h84.852l107.148-107.148 107.148 107.148h84.852v-84.852l-107.148-107.148 107.148-107.148zM416.006 0c-8.328 0-16.512 3.25-22.634 9.374l-246.626 246.626h-114.746c-17.672 0-32 14.326-32 32v320c0 17.672 14.328 32 32 32h114.746l246.626 246.628c9.154 9.154 22.916 11.89 34.874 6.936 11.958-4.952 19.754-16.622 19.754-29.564v-832c0-12.944-7.796-24.612-19.754-29.564-3.958-1.64-8.118-2.436-12.24-2.436z" />
<glyph unicode="&#xea2b;" glyph-name="volume-increase" d="M1024 384h-192v-192h-128v192h-192v128h192v192h128v-192h192v-128zM416.006 0c-8.328 0-16.512 3.25-22.634 9.374l-246.626 246.626h-114.746c-17.672 0-32 14.326-32 32v320c0 17.672 14.328 32 32 32h114.746l246.626 246.628c9.154 9.154 22.916 11.89 34.874 6.936 11.958-4.952 19.754-16.622 19.754-29.564v-832c0-12.944-7.796-24.612-19.754-29.564-3.958-1.64-8.118-2.436-12.24-2.436z" />
<glyph unicode="&#xea2c;" glyph-name="volume-decrease" d="M512 512h512v-128h-512v128zM416.006 0c-8.328 0-16.512 3.25-22.634 9.374l-246.626 246.626h-114.746c-17.672 0-32 14.326-32 32v320c0 17.672 14.328 32 32 32h114.746l246.626 246.628c9.154 9.154 22.916 11.89 34.874 6.936 11.958-4.952 19.754-16.622 19.754-29.564v-832c0-12.944-7.796-24.612-19.754-29.564-3.958-1.64-8.118-2.436-12.24-2.436z" />
<glyph unicode="&#xea2d;" glyph-name="loop" d="M128 640h640v-192l256 256-256 256v-192h-768v-384h128zM896 256h-640v192l-256-256 256-256v192h768v384h-128z" />
<glyph unicode="&#xea2e;" glyph-name="loop2" d="M889.68 793.68c-93.608 102.216-228.154 166.32-377.68 166.32-282.77 0-512-229.23-512-512h96c0 229.75 186.25 416 416 416 123.020 0 233.542-53.418 309.696-138.306l-149.696-149.694h352v352l-134.32-134.32zM928 448c0-229.75-186.25-416-416-416-123.020 0-233.542 53.418-309.694 138.306l149.694 149.694h-352v-352l134.32 134.32c93.608-102.216 228.154-166.32 377.68-166.32 282.77 0 512 229.23 512 512h-96z" />
<glyph unicode="&#xea2f;" glyph-name="infinite" d="M783.988 207.988c-64.104 0-124.372 24.96-169.7 70.288l-102.288 102.282-102.276-102.27c-45.332-45.336-105.6-70.3-169.706-70.3-64.118 0-124.39 24.964-169.722 70.3-45.332 45.334-70.296 105.604-70.296 169.712s24.964 124.38 70.296 169.714c45.334 45.332 105.608 70.296 169.714 70.296 64.108 0 124.38-24.964 169.712-70.296l102.278-102.276 102.276 102.276c45.332 45.332 105.604 70.298 169.712 70.298 64.112 0 124.384-24.966 169.71-70.298 45.338-45.334 70.302-105.606 70.302-169.714 0-64.112-24.964-124.382-70.3-169.71-45.326-45.336-105.598-70.302-169.712-70.302zM681.72 345.712c27.322-27.31 63.64-42.354 102.268-42.352 38.634 0 74.958 15.044 102.276 42.362 27.316 27.322 42.364 63.644 42.364 102.278s-15.046 74.956-42.364 102.274c-27.32 27.318-63.64 42.364-102.276 42.364-38.632 0-74.956-15.044-102.278-42.364l-102.268-102.274 102.278-102.288zM240.012 592.638c-38.634 0-74.956-15.044-102.274-42.364-27.32-27.318-42.364-63.64-42.364-102.274 0-38.632 15.044-74.954 42.364-102.276 27.32-27.316 63.642-42.364 102.274-42.364 38.634 0 74.956 15.044 102.272 42.362l102.276 102.278-102.276 102.274c-27.318 27.32-63.64 42.366-102.272 42.364v0z" />
<glyph unicode="&#xea30;" glyph-name="shuffle" d="M768 256h-101.49l-160 160 160 160h101.49v-160l224 224-224 224v-160h-128c-16.974 0-33.252-6.744-45.254-18.746l-178.746-178.744-178.746 178.746c-12 12-28.28 18.744-45.254 18.744h-192v-128h165.49l160-160-160-160h-165.49v-128h192c16.974 0 33.252 6.742 45.254 18.746l178.746 178.744 178.746-178.744c12.002-12.004 28.28-18.746 45.254-18.746h128v-160l224 224-224 224v-160z" />
<glyph unicode="&#xea41;" glyph-name="circle-up" d="M0 448c0-282.77 229.23-512 512-512s512 229.23 512 512-229.23 512-512 512-512-229.23-512-512zM928 448c0-229.75-186.25-416-416-416s-416 186.25-416 416 186.25 416 416 416 416-186.25 416-416zM706.744 290.744l90.512 90.512-285.256 285.254-285.254-285.256 90.508-90.508 194.746 194.744z" />
<glyph unicode="&#xea42;" glyph-name="circle-right" d="M512 960c-282.77 0-512-229.23-512-512s229.23-512 512-512 512 229.23 512 512-229.23 512-512 512zM512 32c-229.75 0-416 186.25-416 416s186.25 416 416 416 416-186.25 416-416-186.25-416-416-416zM354.744 253.256l90.512-90.512 285.254 285.256-285.256 285.254-90.508-90.508 194.744-194.746z" />
<glyph unicode="&#xea43;" glyph-name="circle-down" d="M1024 448c0 282.77-229.23 512-512 512s-512-229.23-512-512 229.23-512 512-512 512 229.23 512 512zM96 448c0 229.75 186.25 416 416 416s416-186.25 416-416-186.25-416-416-416-416 186.25-416 416zM317.256 605.256l-90.512-90.512 285.256-285.254 285.254 285.256-90.508 90.508-194.746-194.744z" />
<glyph unicode="&#xea44;" glyph-name="circle-left" d="M512-64c282.77 0 512 229.23 512 512s-229.23 512-512 512-512-229.23-512-512 229.23-512 512-512zM512 864c229.75 0 416-186.25 416-416s-186.25-416-416-416-416 186.25-416 416 186.25 416 416 416zM669.256 642.744l-90.512 90.512-285.254-285.256 285.256-285.254 90.508 90.508-194.744 194.746z" />
<glyph unicode="&#xea4c;" glyph-name="sort-amount-asc" d="M320 192v768h-128v-768h-160l224-224 224 224h-160zM448 384h576v-128h-576v128zM448 576h448v-128h-448v128zM448 768h320v-128h-320v128zM448 960h192v-128h-192v128z" />
<glyph unicode="&#xea4d;" glyph-name="sort-amount-desc" d="M320 192v768h-128v-768h-160l224-224 224 224h-160zM448 960h576v-128h-576v128zM448 768h448v-128h-448v128zM448 576h320v-128h-320v128zM448 384h192v-128h-192v128z" />
<glyph unicode="&#xea92;" glyph-name="instagram" d="M512 867.8c136.8 0 153-0.6 206.8-3 50-2.2 77-10.6 95-17.6 23.8-9.2 41-20.4 58.8-38.2 18-18 29-35 38.4-58.8 7-18 15.4-45.2 17.6-95 2.4-54 3-70.2 3-206.8s-0.6-153-3-206.8c-2.2-50-10.6-77-17.6-95-9.2-23.8-20.4-41-38.2-58.8-18-18-35-29-58.8-38.4-18-7-45.2-15.4-95-17.6-54-2.4-70.2-3-206.8-3s-153 0.6-206.8 3c-50 2.2-77 10.6-95 17.6-23.8 9.2-41 20.4-58.8 38.2-18 18-29 35-38.4 58.8-7 18-15.4 45.2-17.6 95-2.4 54-3 70.2-3 206.8s0.6 153 3 206.8c2.2 50 10.6 77 17.6 95 9.2 23.8 20.4 41 38.2 58.8 18 18 35 29 58.8 38.4 18 7 45.2 15.4 95 17.6 53.8 2.4 70 3 206.8 3zM512 960c-139 0-156.4-0.6-211-3-54.4-2.4-91.8-11.2-124.2-23.8-33.8-13.2-62.4-30.6-90.8-59.2-28.6-28.4-46-57-59.2-90.6-12.6-32.6-21.4-69.8-23.8-124.2-2.4-54.8-3-72.2-3-211.2s0.6-156.4 3-211c2.4-54.4 11.2-91.8 23.8-124.2 13.2-33.8 30.6-62.4 59.2-90.8 28.4-28.4 57-46 90.6-59 32.6-12.6 69.8-21.4 124.2-23.8 54.6-2.4 72-3 211-3s156.4 0.6 211 3c54.4 2.4 91.8 11.2 124.2 23.8 33.6 13 62.2 30.6 90.6 59s46 57 59 90.6c12.6 32.6 21.4 69.8 23.8 124.2 2.4 54.6 3 72 3 211s-0.6 156.4-3 211c-2.4 54.4-11.2 91.8-23.8 124.2-12.6 34-30 62.6-58.6 91-28.4 28.4-57 46-90.6 59-32.6 12.6-69.8 21.4-124.2 23.8-54.8 2.6-72.2 3.2-211.2 3.2v0zM512 711c-145.2 0-263-117.8-263-263s117.8-263 263-263 263 117.8 263 263c0 145.2-117.8 263-263 263zM512 277.4c-94.2 0-170.6 76.4-170.6 170.6s76.4 170.6 170.6 170.6c94.2 0 170.6-76.4 170.6-170.6s-76.4-170.6-170.6-170.6zM846.8 721.4c0-33.91-27.49-61.4-61.4-61.4s-61.4 27.49-61.4 61.4c0 33.91 27.49 61.4 61.4 61.4s61.4-27.49 61.4-61.4z" />
<glyph unicode="&#xea93;" glyph-name="whatsapp" d="M873 811.2c-95.8 96-223.2 148.8-359 148.8-279.6 0-507.2-227.6-507.2-507.4 0-89.4 23.4-176.8 67.8-253.6l-72-263 269 70.6c74.2-40.4 157.6-61.8 242.4-61.8h0.2c0 0 0 0 0 0 279.6 0 507.4 227.6 507.4 507.4 0 135.6-52.8 263-148.6 359zM514.2 30.4v0c-75.8 0-150 20.4-214.8 58.8l-15.4 9.2-159.6-41.8 42.6 155.6-10 16c-42.4 67-64.6 144.6-64.6 224.4 0 232.6 189.2 421.8 422 421.8 112.6 0 218.6-44 298.2-123.6 79.6-79.8 123.4-185.6 123.4-298.4-0.2-232.8-189.4-422-421.8-422zM745.4 346.4c-12.6 6.4-75 37-86.6 41.2s-20 6.4-28.6-6.4c-8.4-12.6-32.8-41.2-40.2-49.8-7.4-8.4-14.8-9.6-27.4-3.2s-53.6 19.8-102 63c-37.6 33.6-63.2 75.2-70.6 87.8s-0.8 19.6 5.6 25.8c5.8 5.6 12.6 14.8 19 22.2s8.4 12.6 12.6 21.2c4.2 8.4 2.2 15.8-1 22.2s-28.6 68.8-39 94.2c-10.2 24.8-20.8 21.4-28.6 21.8-7.4 0.4-15.8 0.4-24.2 0.4s-22.2-3.2-33.8-15.8c-11.6-12.6-44.4-43.4-44.4-105.8s45.4-122.6 51.8-131.2c6.4-8.4 89.4-136.6 216.6-191.4 30.2-13 53.8-20.8 72.2-26.8 30.4-9.6 58-8.2 79.8-5 24.4 3.6 75 30.6 85.6 60.2s10.6 55 7.4 60.2c-3 5.6-11.4 8.8-24.2 15.2z" />
<glyph unicode="&#xeae4;" glyph-name="html-five" d="M60.538 960l82.144-921.63 368.756-102.37 369.724 102.524 82.3 921.476h-902.924zM784.63 658.572h-432.54l10.302-115.75h411.968l-31.042-347.010-231.844-64.254-231.572 64.254-15.83 177.512h113.494l8.048-90.232 125.862-33.916 0.278 0.078 125.934 33.992 13.070 146.55h-391.74l-30.494 341.8h566.214l-10.108-113.024z" />
</font>
</defs>
</svg>
